<svg width="485" height="312" viewBox="0 0 485 312" fill="none" xmlns="http://www.w3.org/2000/svg">
<g clip-path="url(#clip0_11_16)">
<path d="M456.124 76.0977C457.529 74.3912 458.807 72.592 459.947 70.7135L432.974 66.4813L462.146 66.6864C464.946 60.8635 466.474 54.5555 466.635 48.1484C466.797 41.7414 465.589 35.3702 463.086 29.4251L423.949 48.8411L460.043 23.4694C456.661 17.8818 452.112 13.0201 446.68 9.18694C441.248 5.35381 435.048 2.63143 428.468 1.18936C421.887 -0.25271 415.067 -0.383568 408.431 0.804934C401.795 1.99344 395.486 4.47584 389.898 8.09751C384.309 11.7192 379.56 16.4026 375.946 21.8559C372.333 27.3092 369.932 33.4157 368.894 39.7949C367.855 46.1742 368.202 52.6895 369.911 58.9352C371.621 65.1808 374.657 71.023 378.83 76.0977C376.645 78.7552 374.766 81.6296 373.223 84.6712L408.236 102.067L370.905 90.0859C368.282 97.496 367.633 105.415 369.016 113.125C370.399 120.836 373.77 128.095 378.826 134.245C373.6 140.6 370.175 148.136 368.882 156.126C367.589 164.116 368.472 172.289 371.445 179.858C374.418 187.426 379.381 194.133 385.855 199.333C392.329 204.532 400.096 208.048 408.404 209.54C407.754 211.294 407.425 213.142 407.433 215.003C407.404 217.756 408.142 220.467 409.572 222.856C408.169 225.257 407.433 227.96 407.433 230.71C407.433 233.46 408.169 236.164 409.572 238.564C408.169 240.964 407.433 243.668 407.433 246.417C407.433 249.167 408.169 251.871 409.572 254.271C408.169 256.671 407.433 259.375 407.433 262.125C407.433 264.874 408.169 267.578 409.572 269.978C408.142 272.368 407.404 275.079 407.433 277.832C407.433 284.931 412.027 290.682 417.698 290.682C423.37 290.682 427.964 284.931 427.964 277.832C427.991 275.079 427.251 272.368 425.82 269.978C427.226 267.579 427.964 264.875 427.964 262.125C427.964 259.375 427.226 256.67 425.82 254.271C427.226 251.872 427.964 249.168 427.964 246.417C427.964 243.667 427.226 240.963 425.82 238.564C427.226 236.165 427.964 233.46 427.964 230.71C427.964 227.96 427.226 225.256 425.82 222.856C427.251 220.467 427.991 217.756 427.964 215.003C427.971 213.116 427.633 211.242 426.965 209.466C435.225 207.911 442.929 204.355 449.341 199.138C455.752 193.921 460.655 187.217 463.582 179.668C466.508 172.119 467.359 163.979 466.053 156.026C464.747 148.073 461.328 140.573 456.124 134.245C462.942 125.957 466.649 115.717 466.649 105.171C466.649 94.6257 462.942 84.386 456.124 76.0977Z" fill="#F2F2F2"/>
<path d="M293.52 126.143C292.583 125.001 291.73 123.798 290.965 122.543L309.001 119.712L289.496 119.847C287.624 115.954 286.603 111.736 286.494 107.452C286.386 103.168 287.193 98.9085 288.867 94.9334L315.042 107.918L290.906 90.9498C293.164 87.2061 296.204 83.9475 299.837 81.3776C303.47 78.8076 307.618 76.9814 312.022 76.0129C316.427 75.0445 320.992 74.9546 325.434 75.7488C329.876 76.543 334.1 78.2044 337.84 80.6291C341.581 83.0538 344.759 86.1899 347.176 89.8416C349.593 93.4933 351.196 97.5822 351.887 101.853C352.578 106.124 352.34 110.485 351.19 114.664C350.039 118.843 348 122.751 345.2 126.143C346.663 127.919 347.92 129.841 348.95 131.876L325.535 143.508L350.511 135.493C352.266 140.448 352.7 145.744 351.775 150.901C350.849 156.057 348.592 160.911 345.209 165.023C348.705 169.272 350.997 174.311 351.862 179.654C352.728 184.997 352.138 190.463 350.151 195.524C348.163 200.585 344.844 205.071 340.515 208.548C336.185 212.025 330.992 214.376 325.435 215.374C325.869 216.546 326.088 217.782 326.083 219.026C326.1 220.862 325.605 222.669 324.65 224.261C325.59 225.866 326.083 227.674 326.083 229.512C326.083 231.351 325.59 233.159 324.65 234.764C325.59 236.369 326.083 238.177 326.083 240.017C326.083 241.856 325.59 243.665 324.65 245.27C325.59 246.874 326.083 248.682 326.083 250.521C326.083 252.36 325.59 254.168 324.65 255.772C325.605 257.365 326.1 259.172 326.083 261.008C326.083 265.751 323.012 269.599 319.239 269.599C315.466 269.599 312.395 265.751 312.395 261.008C312.379 259.172 312.873 257.365 313.828 255.772C312.889 254.168 312.395 252.36 312.395 250.521C312.395 248.682 312.889 246.874 313.828 245.27C312.889 243.665 312.395 241.856 312.395 240.017C312.395 238.177 312.889 236.369 313.828 234.764C312.889 233.159 312.395 231.351 312.395 229.512C312.395 227.674 312.889 225.866 313.828 224.261C312.873 222.669 312.378 220.862 312.395 219.026C312.391 217.763 312.618 216.509 313.066 215.321C307.542 214.282 302.39 211.905 298.103 208.416C293.815 204.928 290.535 200.445 288.578 195.398C286.621 190.35 286.051 184.907 286.924 179.588C287.796 174.27 290.082 169.255 293.561 165.023C289.004 159.48 286.526 152.634 286.526 145.583C286.526 138.532 289.004 131.686 293.561 126.143H293.52Z" fill="#F2F2F2"/>
<path d="M256.486 312C382.691 312 485 299.693 485 284.512C485 269.331 382.691 257.024 256.486 257.024C130.282 257.024 27.9728 269.331 27.9728 284.512C27.9728 299.693 130.282 312 256.486 312Z" fill="#F2F2F2"/>
<path d="M326.662 222.686C326.662 223.559 326.635 224.432 326.585 225.269C326.585 225.396 326.585 225.518 326.585 225.645C326.341 229.331 325.641 232.976 324.5 236.504C324.468 236.613 324.427 236.731 324.39 236.84C323.221 240.353 321.651 243.731 319.709 246.915L319.513 247.229C317.427 250.585 314.981 253.723 312.213 256.592L311.93 256.88C308.82 260.072 305.376 262.949 301.651 265.467C301.523 265.559 301.391 265.65 301.263 265.733C297.361 268.345 293.21 270.601 288.867 272.47C288.269 272.727 287.667 272.98 287.042 273.229L286.494 273.447C279.848 276.063 272.884 277.871 265.767 278.827L264.895 278.94C260.899 279.445 256.872 279.697 252.841 279.695C222.966 279.695 197.233 265.986 185.621 246.26C184.84 244.943 184.126 243.599 183.482 242.229L183.217 241.666C180.752 236.303 179.349 230.55 179.079 224.698C179.079 224.554 179.079 224.414 179.079 224.261C179.079 223.738 179.056 223.21 179.056 222.682C179.054 218.603 179.612 214.541 180.717 210.6C180.749 210.478 180.781 210.36 180.817 210.243C181.977 206.228 183.664 202.369 185.836 198.759C185.895 198.658 185.954 198.554 186.018 198.453C188.159 194.957 190.692 191.694 193.574 188.724C193.649 188.634 193.73 188.548 193.816 188.466L193.852 188.431C194.213 188.065 194.578 187.694 194.952 187.332L195.513 186.791C195.882 186.437 196.261 186.093 196.64 185.744H196.663C197.575 184.923 198.504 184.128 199.45 183.357C200.764 182.292 202.138 181.267 203.557 180.281L203.862 180.063C207.63 177.493 211.634 175.257 215.825 173.383C215.948 173.326 216.076 173.265 216.199 173.217C220.922 171.131 225.839 169.475 230.886 168.269C231.046 168.226 231.201 168.191 231.342 168.156C237.593 166.697 243.99 165.885 250.423 165.734C250.637 165.734 250.852 165.734 251.071 165.734C251.655 165.734 252.243 165.712 252.832 165.712C282.438 165.712 307.974 179.181 319.737 198.61C319.841 198.785 319.942 198.96 320.047 199.13L320.503 199.893C320.754 200.33 320.991 200.766 321.228 201.228C321.338 201.438 321.443 201.643 321.548 201.852C321.612 201.974 321.68 202.097 321.739 202.223C323.461 205.646 324.752 209.252 325.586 212.965C325.622 213.109 325.65 213.249 325.682 213.402C326.332 216.457 326.661 219.568 326.662 222.686V222.686Z" fill="#087E8B"/>
<g opacity="0.2">
<path opacity="0.2" d="M320.06 199.09C316.687 197.869 313.341 196.598 310.023 195.277C289.315 187.079 269.386 177.186 250.459 165.708H251.107C272.807 178.806 295.807 189.82 319.773 198.589C319.86 198.759 319.96 198.92 320.06 199.09Z" fill="#F2F2F2"/>
</g>
<g opacity="0.2">
<path opacity="0.2" d="M325.677 213.349C317.464 210.731 309.339 207.823 301.299 204.623C280.379 196.347 260.253 186.34 241.152 174.718C237.55 172.528 234.129 170.368 230.886 168.239L231.342 168.13C234.509 170.198 237.855 172.304 241.38 174.447C267.731 190.459 296.001 203.38 325.581 212.93C325.618 213.07 325.645 213.21 325.677 213.349Z" fill="#F2F2F2"/>
</g>
<g opacity="0.2">
<path opacity="0.2" d="M326.585 225.269C326.585 225.396 326.585 225.522 326.585 225.645C315.121 222.302 303.798 218.422 292.617 214.004C271.692 205.721 251.564 195.707 232.46 184.077C226.415 180.399 220.867 176.795 215.839 173.357L216.213 173.186C221.2 176.594 226.707 180.167 232.684 183.806C261.909 201.574 293.49 215.518 326.585 225.269V225.269Z" fill="#F2F2F2"/>
</g>
<g opacity="0.2">
<path opacity="0.2" d="M324.477 236.5C324.445 236.618 324.404 236.731 324.368 236.845C310.617 233.092 297.102 228.59 283.889 223.363C262.967 215.082 242.841 205.07 223.741 193.44C216.231 188.872 209.492 184.413 203.557 180.255L203.862 180.041C209.794 184.182 216.491 188.619 223.965 193.17C255.135 212.125 288.983 226.717 324.477 236.5V236.5Z" fill="#F2F2F2"/>
</g>
<g opacity="0.2">
<path opacity="0.2" d="M319.686 246.915L319.49 247.229C304.419 243.284 289.621 238.44 275.184 232.726C254.261 224.443 234.134 214.431 215.031 202.803C206.983 197.904 199.811 193.126 193.588 188.715C193.661 188.632 193.743 188.545 193.829 188.462C200.062 192.869 207.229 197.624 215.273 202.533C239.167 217.084 274.955 235.187 319.686 246.915Z" fill="#F2F2F2"/>
</g>
<g opacity="0.2">
<path opacity="0.2" d="M312.195 256.592L311.912 256.88C296.451 252.887 281.276 247.946 266.478 242.089C245.556 233.807 225.428 223.795 206.326 212.167C198.698 207.516 191.854 202.982 185.836 198.759C185.895 198.658 185.954 198.558 186.018 198.458C192.036 202.686 198.898 207.232 206.55 211.892C230.676 226.583 266.898 244.877 312.195 256.592Z" fill="#F2F2F2"/>
</g>
<g opacity="0.2">
<path opacity="0.2" d="M301.632 265.467C301.505 265.559 301.372 265.65 301.245 265.733C286.462 261.828 271.945 257.059 257.773 251.453C236.85 243.172 216.723 233.159 197.621 221.53C191.461 217.778 185.808 214.113 180.703 210.6C180.735 210.483 180.767 210.365 180.803 210.247C185.945 213.768 191.635 217.477 197.849 221.26C221.642 235.745 257.203 253.735 301.632 265.467Z" fill="#F2F2F2"/>
</g>
<g opacity="0.2">
<path opacity="0.2" d="M287.037 273.229L286.489 273.447C273.794 269.872 261.306 265.655 249.077 260.816C237.214 256.126 225.53 250.833 214.133 245C205.555 240.601 197.152 235.899 188.925 230.893C185.484 228.799 182.209 226.734 179.097 224.698C179.097 224.554 179.097 224.414 179.097 224.261C182.285 226.341 185.644 228.459 189.176 230.614C196.672 235.182 205.341 240.095 215.086 245.056C238.014 256.744 262.121 266.183 287.037 273.229V273.229Z" fill="#F2F2F2"/>
</g>
<g opacity="0.2">
<path opacity="0.2" d="M265.767 278.827L264.895 278.94C256.631 276.296 248.449 273.374 240.349 270.175C222.822 263.237 205.851 255.077 189.573 245.763C187.541 244.599 185.518 243.421 183.504 242.229L183.24 241.666C185.457 242.987 187.766 244.332 190.166 245.702C214.054 259.298 239.4 270.403 265.767 278.827V278.827Z" fill="#F2F2F2"/>
</g>
<path opacity="0.1" d="M288.848 272.47C288.251 272.727 287.648 272.98 287.023 273.229L286.476 273.447C279.835 276.062 272.878 277.869 265.767 278.827L264.895 278.94C260.899 279.445 256.872 279.697 252.841 279.695C222.966 279.695 197.233 265.986 185.621 246.26C186.926 246.068 188.236 245.907 189.55 245.763L190.143 245.702C193.674 245.344 197.233 245.143 200.783 244.999C205.223 244.777 209.673 244.777 214.114 244.999C214.425 244.999 214.735 245.034 215.027 245.061C218.053 245.265 221.059 245.686 224.02 246.317C233.03 248.272 241.289 252.517 249.474 256.614C262.117 262.923 275.042 269.075 288.848 272.47Z" fill="black"/>
<path opacity="0.1" d="M319.755 198.571C307.993 179.142 282.456 165.673 252.85 165.673C252.262 165.673 251.673 165.673 251.089 165.673H250.441C244.008 165.822 237.611 166.634 231.361 168.095L230.904 168.204C225.859 169.413 220.942 171.07 216.218 173.152L215.844 173.322C211.651 175.196 207.647 177.434 203.881 180.006L203.575 180.22C200.069 182.636 196.819 185.375 193.87 188.396C193.487 192.118 192.83 195.761 191.133 199.117C189.938 201.473 188.701 203.742 190.394 206.098C191.53 207.681 193.989 209.689 196.083 209.767C201.837 209.99 205.035 202.633 207.745 198.968C211.897 193.357 218.052 189.461 224.065 185.696C226.634 184.086 229.23 182.462 232.127 181.498C234.57 180.742 237.112 180.315 239.678 180.229C246.672 179.853 253.822 180.87 260.209 183.641C267.509 186.804 273.988 192.258 281.954 193.013C285.563 193.353 289.254 192.685 292.79 193.475C299.073 194.884 303.43 200.552 309.544 202.533C313.5 203.816 317.756 203.406 321.781 202.149C321.26 201.102 320.702 200.071 320.106 199.056C319.96 198.92 319.86 198.759 319.755 198.571Z" fill="black"/>
<path d="M140.817 220.435C138.655 222.617 136.228 224.532 133.997 226.648C125.734 234.502 120.437 244.707 113.009 253.263C111.006 255.571 108.83 257.788 107.338 260.423C105.846 263.059 105.098 266.265 106.165 269.084C107.078 271.501 109.181 273.312 111.225 274.983C112.486 276.09 113.871 277.06 115.354 277.876C118.785 279.621 122.846 279.717 126.733 279.774C128.877 279.804 131.492 279.573 132.409 277.719C128.934 276.135 125.733 274.051 122.919 271.54C121.308 270.101 119.789 268.451 119.136 266.44C118.023 263.011 119.67 259.276 122.002 256.461C124.333 253.647 127.34 251.392 129.616 248.538C131.893 245.685 133.362 242.408 136.104 240.078C138.002 238.468 140.361 237.46 142.492 236.12C145.604 234.161 148.172 231.526 150.704 228.917L164.164 215.073C164.488 214.808 164.712 214.447 164.798 214.047C164.853 213.528 164.451 213.074 164.068 212.699C161.139 209.824 155.618 204.776 151.594 208.563C147.716 212.21 144.572 216.648 140.817 220.435Z" fill="#A0616A"/>
<path opacity="0.1" d="M140.817 220.435C138.655 222.617 136.228 224.532 133.997 226.648C125.734 234.502 120.437 244.707 113.009 253.263C111.006 255.571 108.83 257.788 107.338 260.423C105.846 263.059 105.098 266.265 106.165 269.084C107.078 271.501 109.181 273.312 111.225 274.983C112.486 276.09 113.871 277.06 115.354 277.876C118.785 279.621 122.846 279.717 126.733 279.774C128.877 279.804 131.492 279.573 132.409 277.719C128.934 276.135 125.733 274.051 122.919 271.54C121.308 270.101 119.789 268.451 119.136 266.44C118.023 263.011 119.67 259.276 122.002 256.461C124.333 253.647 127.34 251.392 129.616 248.538C131.893 245.685 133.362 242.408 136.104 240.078C138.002 238.468 140.361 237.46 142.492 236.12C145.604 234.161 148.172 231.526 150.704 228.917L164.164 215.073C164.488 214.808 164.712 214.447 164.798 214.047C164.853 213.528 164.451 213.074 164.068 212.699C161.139 209.824 155.618 204.776 151.594 208.563C147.716 212.21 144.572 216.648 140.817 220.435Z" fill="black"/>
<path d="M160.053 195.268C162.768 194.719 165.692 196.102 168.316 195.242C169.803 194.753 170.939 193.619 172.011 192.52L176.391 188.056C177.628 186.795 178.887 185.508 179.649 183.937C180.324 182.55 180.562 181.018 180.89 179.517C181.693 175.678 183.066 171.742 186.082 169.098C189.842 165.791 195.636 165.171 200.463 166.751C205.29 168.33 209.219 171.856 212.107 175.887C209.524 178.854 206.632 181.594 204.054 184.561C203.23 185.6 202.261 186.526 201.175 187.314C199.973 188.016 198.68 188.563 197.329 188.942C192.689 190.512 187.748 192.786 185.836 197.127C185.17 198.637 184.923 200.282 184.558 201.883C183.856 204.911 182.574 207.908 180.256 210.077C177.938 212.245 174.439 213.432 171.35 212.494C167.933 211.456 165.838 208.253 164.077 205.269C162.205 202.154 160.847 198.78 160.053 195.268V195.268Z" fill="#A0616A"/>
<path opacity="0.1" d="M160.053 195.268C162.768 194.719 165.692 196.102 168.316 195.242C169.803 194.753 170.939 193.619 172.011 192.52L176.391 188.056C177.628 186.795 178.887 185.508 179.649 183.937C180.324 182.55 180.562 181.018 180.89 179.517C181.693 175.678 183.066 171.742 186.082 169.098C189.842 165.791 195.636 165.171 200.463 166.751C205.29 168.33 209.219 171.856 212.107 175.887C209.524 178.854 206.632 181.594 204.054 184.561C203.23 185.6 202.261 186.526 201.175 187.314C199.973 188.016 198.68 188.563 197.329 188.942C192.689 190.512 187.748 192.786 185.836 197.127C185.17 198.637 184.923 200.282 184.558 201.883C183.856 204.911 182.574 207.908 180.256 210.077C177.938 212.245 174.439 213.432 171.35 212.494C167.933 211.456 165.838 208.253 164.077 205.269C162.205 202.154 160.847 198.78 160.053 195.268V195.268Z" fill="black"/>
<path d="M278.911 177.938C296.057 183.806 313.103 190.757 327.274 201.717C333.762 206.739 339.542 212.533 345.711 217.913C348.941 220.732 352.276 223.432 355.612 226.138L379.286 245.335C382.216 247.713 385.158 250.096 388.412 252.085C396.063 256.789 405.188 259.18 412.68 264.237C412.666 266.848 413.113 269.443 414.003 271.911C414.342 272.82 414.984 273.598 415.829 274.125C416.674 274.652 417.677 274.9 418.684 274.83C430.482 274.18 442.445 279.656 454.331 278.277C454.674 278.241 455.003 278.13 455.294 277.952C455.584 277.774 455.828 277.535 456.005 277.252C456.804 275.917 455.439 274.669 454.244 273.87L438.106 263.067C435.446 261.287 432.787 259.507 430.076 257.801C420.276 251.64 409.81 246.409 400.726 239.336C398.787 237.826 396.921 236.238 395.05 234.646C385.158 226.242 375.262 217.83 365.886 208.903C352.258 195.923 339.369 181.442 325.859 168.348C324.575 167.042 323.191 165.83 321.717 164.722C320.275 163.74 318.765 162.855 317.195 162.074L300.045 153.064C297.449 151.698 294.57 150.289 291.673 150.825C290.955 150.656 290.204 150.659 289.488 150.835C288.771 151.01 288.111 151.351 287.566 151.829C286.462 152.802 285.741 154.089 285.011 155.35C284.058 156.877 283.307 158.511 282.776 160.215C282.164 162.532 282.365 165.014 281.658 167.292C281.202 168.797 280.353 170.172 279.778 171.655C279.024 173.666 278.729 175.808 278.911 177.938V177.938Z" fill="#A0616A"/>
<path opacity="0.1" d="M278.911 177.938C296.057 183.806 313.103 190.757 327.274 201.717C333.762 206.739 339.542 212.533 345.711 217.913C348.941 220.732 352.276 223.432 355.612 226.138L379.286 245.335C382.216 247.713 385.158 250.096 388.412 252.085C396.063 256.789 405.188 259.18 412.68 264.237C412.666 266.848 413.113 269.443 414.003 271.911C414.342 272.82 414.984 273.598 415.829 274.125C416.674 274.652 417.677 274.9 418.684 274.83C430.482 274.18 442.445 279.656 454.331 278.277C454.674 278.241 455.003 278.13 455.294 277.952C455.584 277.774 455.828 277.535 456.005 277.252C456.804 275.917 455.439 274.669 454.244 273.87L438.106 263.067C435.446 261.287 432.787 259.507 430.076 257.801C420.276 251.64 409.81 246.409 400.726 239.336C398.787 237.826 396.921 236.238 395.05 234.646C385.158 226.242 375.262 217.83 365.886 208.903C352.258 195.923 339.369 181.442 325.859 168.348C324.575 167.042 323.191 165.83 321.717 164.722C320.275 163.74 318.765 162.855 317.195 162.074L300.045 153.064C297.449 151.698 294.57 150.289 291.673 150.825C290.955 150.656 290.204 150.659 289.488 150.835C288.771 151.01 288.111 151.351 287.566 151.829C286.462 152.802 285.741 154.089 285.011 155.35C284.058 156.877 283.307 158.511 282.776 160.215C282.164 162.532 282.365 165.014 281.658 167.292C281.202 168.797 280.353 170.172 279.778 171.655C279.024 173.666 278.729 175.808 278.911 177.938V177.938Z" fill="black"/>
<path d="M162.576 229.201C173.237 229.201 181.88 220.935 181.88 210.74C181.88 200.545 173.237 192.28 162.576 192.28C151.915 192.28 143.272 200.545 143.272 210.74C143.272 220.935 151.915 229.201 162.576 229.201Z" fill="#A0616A"/>
<path d="M280.052 144.08C282.748 144.124 285.81 144.324 287.507 146.327C289.204 148.33 288.821 151.074 288.392 153.544C287.051 161.349 285.655 169.295 281.922 176.354C281.661 176.991 281.197 177.533 280.595 177.903C279.523 178.431 278.25 177.811 277.223 177.205C269.745 172.763 262.267 167.981 253.744 165.861C253.23 165.798 252.758 165.557 252.417 165.184C252.3 164.95 252.233 164.696 252.219 164.437C252.206 164.178 252.247 163.919 252.339 163.675C253.188 160.058 254.26 156.484 254.926 152.828C255.327 150.646 254.584 145.411 256.605 144.058C258.745 142.618 264.909 143.836 267.441 143.875L280.052 144.08Z" fill="#A0616A"/>
<path d="M289.131 180.111C306.277 185.979 323.323 192.93 337.471 203.886C343.959 208.912 349.74 214.706 355.908 220.086C359.138 222.905 362.474 225.605 365.809 228.306L389.484 247.504C392.413 249.878 395.356 252.264 398.609 254.249C406.292 258.97 415.417 261.353 422.881 266.388C422.867 269 423.315 271.597 424.204 274.067C424.545 274.975 425.186 275.752 426.031 276.28C426.877 276.807 427.879 277.055 428.886 276.986C440.684 276.331 452.647 281.811 464.533 280.433C464.876 280.396 465.205 280.284 465.496 280.105C465.786 279.927 466.03 279.686 466.207 279.403C467.005 278.094 465.641 276.82 464.446 276.022L448.308 265.223C445.648 263.443 442.988 261.662 440.278 259.956C430.496 253.796 420.03 248.564 410.946 241.496C409.007 239.986 407.141 238.394 405.27 236.806C395.378 228.402 385.482 219.99 376.102 211.063C362.478 198.083 349.589 183.601 336.079 170.486C334.788 169.197 333.399 168.001 331.923 166.908C330.481 165.929 328.97 165.046 327.402 164.264L310.251 155.254C307.655 153.888 304.776 152.479 301.879 153.016C301.161 152.845 300.411 152.847 299.694 153.021C298.978 153.195 298.318 153.537 297.773 154.015C296.668 154.988 295.948 156.279 295.218 157.54C294.265 159.066 293.514 160.698 292.982 162.401C292.371 164.718 292.571 167.2 291.864 169.482C291.408 170.987 290.559 172.362 289.984 173.845C289.238 175.852 288.947 177.988 289.131 180.111V180.111Z" fill="#A0616A"/>
<path d="M294.821 181.463L295.364 173.911C295.519 171.799 295.674 169.661 296.354 167.65C297.125 165.368 298.53 163.339 299.958 161.367C300.72 160.217 301.641 159.17 302.696 158.256C304.251 157.004 306.263 156.323 307.714 154.966C308.13 154.578 308.517 154.006 308.271 153.504C308.157 153.317 308.001 153.156 307.815 153.033C304.238 150.228 299.949 148.404 295.715 146.61L287.712 143.225C284.345 147.588 280.919 152.086 279.185 157.261C278.923 158.18 278.595 159.081 278.204 159.957C277.177 162.004 275.229 163.496 273.993 165.433C272.829 167.257 272.346 169.39 271.885 171.48C271.611 172.706 271.347 174.015 271.807 175.189C272.318 176.498 273.632 177.345 274.828 178.108C280.125 181.428 285.718 184.853 292.038 185.325C293.196 185.408 294.739 185.962 295.108 184.888C295.368 184.168 294.761 182.345 294.821 181.463Z" fill="#3F3D56"/>
<path d="M136.688 202.686C134.69 205.247 136.031 208.977 138.103 211.486C140.174 213.995 142.944 216.098 144.102 219.095C146.881 226.264 139.129 233.494 139.394 241.121C139.631 247.918 145.914 252.844 151.257 257.36C162.608 266.959 172.308 280.337 171.03 294.787C176.194 293.341 180.656 290.192 183.623 285.9C185.356 289.536 186.088 293.536 185.749 297.519C197.648 289.73 204.423 275.332 202.63 261.654C201.777 255.179 199.167 248.865 199.574 242.355C199.793 238.826 200.892 235.409 201.686 231.954C202.697 227.499 203.202 222.952 203.192 218.393C203.192 213.192 202.183 207.415 197.895 204.217C194.245 201.499 189.226 201.407 184.599 201.429C179.713 201.46 174.826 201.481 169.949 201.774C164.971 202.07 159.839 203.641 154.938 203.759C149.482 203.89 141.794 196.141 136.688 202.686Z" fill="#3F3D56"/>
<path d="M209.648 168.535C206.421 169.553 203.516 171.335 201.202 173.714C199.747 175.224 198.542 176.947 197.032 178.409C195.235 180.154 193.04 181.463 190.937 182.86C186.917 185.521 183.153 188.51 179.394 191.494L160.87 206.198C157.973 208.497 155.075 210.801 152.342 213.279C148.971 216.334 145.859 219.667 142.259 222.481C140.151 224.131 137.884 225.601 135.949 227.438C134.124 229.183 132.646 231.195 131.149 233.188C125.053 241.281 118.504 249.053 111.531 256.47C108.57 259.625 105.508 262.731 101.908 265.197C94.4441 270.341 88.7774 278.042 82.2165 284.215C81.6599 284.739 81.0485 285.485 81.3907 286.161C81.5946 286.485 81.9216 286.721 82.3032 286.82C87.103 288.531 91.2366 281.083 96.2371 282.139C98.5184 282.619 99.9191 284.682 101.552 286.257C103.186 287.833 105.987 288.993 107.694 287.488C107.109 283.107 107.704 278.655 109.423 274.555C112.22 267.919 117.768 262.688 123.69 258.307C129.612 253.927 136.059 250.192 141.62 245.397C150.951 237.355 157.767 226.386 168.836 220.71C173.17 218.485 177.961 217.184 182.282 214.907C190.645 210.483 196.494 202.69 201.065 194.675C201.604 193.576 202.332 192.571 203.219 191.704C204.173 190.985 205.234 190.407 206.367 189.989C212.246 187.394 217.521 183.699 221.88 179.12C220.511 178.182 219.229 177.179 217.865 176.236C216.754 175.533 215.738 174.702 214.84 173.762C213.927 172.733 213.334 171.498 212.558 170.372C211.783 169.247 210.971 168.941 209.648 168.535Z" fill="#A0616A"/>
<path d="M259.493 169.884C258.289 168.959 258.248 167.266 258.307 165.769C258.505 161.179 258.699 156.59 258.891 152.003C259.023 148.77 259.347 145.149 261.898 143.028C254.521 141.612 247.085 140.525 239.587 139.769C236.612 139.468 233.596 139.219 230.631 139.634C227.058 140.131 223.709 141.562 220.415 142.98C216.765 144.551 213.092 146.135 209.821 148.338C208.562 149.269 207.248 150.131 205.888 150.921C203.406 152.23 200.554 152.667 197.881 153.539C191.703 155.55 186.537 159.702 183.404 165.176C180.27 170.65 179.396 177.048 180.954 183.108C181.866 180.853 182.505 178.492 183.573 176.297C184.64 174.103 186.214 172.03 188.455 170.909C190.791 169.748 193.61 169.757 196.152 170.425C198.693 171.092 200.979 172.379 203.26 173.679C208.343 176.625 213.535 180.063 215.948 185.251C220.967 181.681 226.1 178.27 231.128 174.683C233.309 173.134 235.522 171.572 238.049 170.634C241.371 169.399 245.016 169.325 248.58 169.26C252.143 169.194 256.007 169.002 259.493 169.884Z" fill="#F76863"/>
<path d="M180.936 182.689L180.329 190.739L182.519 189.012L181.424 181.891L180.936 182.689Z" fill="#FF6584"/>
<path d="M98.7009 79.3133L91.6199 83.6066L95.9178 76.1544C94.6997 75.2246 93.192 74.7102 91.6336 74.6927H91.5195C91.0275 74.6996 90.5358 74.6645 90.0504 74.588L87.6505 76.0453L88.6816 74.2564C86.9802 73.6878 85.5108 72.6187 84.4841 71.2022L80.1862 73.8201L82.9009 69.1035C80.3869 66.2195 77.0016 64.4524 73.2785 64.4524C68.8118 64.4524 64.8333 66.9918 62.2646 70.9491C61.5038 72.1366 60.4274 73.11 59.1449 73.7699C57.8625 74.4298 56.4201 74.7528 54.9646 74.7058H54.7228C49.7907 74.7058 45.7939 80.0506 45.7939 86.6477C45.7939 93.2448 49.7907 98.5897 54.7228 98.5897C55.8078 98.5848 56.8754 98.3288 57.8344 97.8436C59.5125 97.0635 61.3479 96.6415 63.2134 96.6068C65.0789 96.5722 66.93 96.9257 68.6385 97.6429C70.0839 98.2612 71.6495 98.5808 73.2329 98.5808C74.8164 98.5808 76.382 98.2612 77.8274 97.6429C79.5236 96.9396 81.3582 96.5936 83.2066 96.6282C85.055 96.6628 86.874 97.0773 88.5402 97.8436C89.4893 98.3186 90.544 98.5685 91.6153 98.5722C96.5474 98.5722 100.544 93.223 100.544 86.6303C100.583 84.0818 99.9494 81.5651 98.7009 79.3133Z" fill="#F2F2F2"/>
<path opacity="0.03" d="M85.3555 96.7877C82.7793 96.3186 80.1152 96.5951 77.7042 97.5818C76.2568 98.1954 74.6905 98.5106 73.1073 98.5068C71.5241 98.5031 69.9595 98.1805 68.5153 97.56C66.8064 96.8435 64.9552 96.4907 63.0897 96.5262C61.2242 96.5616 59.389 96.9843 57.7113 97.7651C56.7517 98.2485 55.6842 98.503 54.5996 98.5068C50.2196 98.5068 46.5741 94.2876 45.8168 88.7203C46.692 88.1104 47.4357 87.3444 48.0068 86.4645C50.5709 82.5072 54.554 79.9634 59.0207 79.9634C63.4874 79.9634 67.4157 82.4722 69.9707 86.3903C70.7388 87.576 71.8149 88.5512 73.0942 89.2211C74.3735 89.8909 75.8124 90.2324 77.2708 90.2125H77.3848C80.866 90.2125 83.8864 92.8871 85.3555 96.7877Z" fill="black"/>
<path d="M225.069 104.572L221.538 106.696L223.682 102.97C223.075 102.506 222.324 102.249 221.547 102.242H221.51C221.266 102.244 221.022 102.227 220.78 102.189L219.58 102.914L220.096 102.041C219.247 101.758 218.514 101.225 218.002 100.518L215.857 101.827L217.226 99.4754C216.653 98.7655 215.92 98.1876 215.082 97.7844C214.245 97.3811 213.323 97.1628 212.385 97.1455C210.159 97.1455 208.174 98.4108 206.91 100.387C206.53 100.981 205.991 101.467 205.35 101.796C204.709 102.124 203.987 102.284 203.26 102.259H203.141C200.682 102.259 198.688 104.925 198.688 108.215C198.688 111.505 200.682 114.171 203.141 114.171C203.682 114.168 204.214 114.041 204.693 113.8C205.529 113.408 206.445 113.197 207.375 113.179C208.306 113.162 209.23 113.339 210.081 113.699C210.799 114.006 211.576 114.167 212.362 114.171C213.148 114.171 213.926 114.013 214.644 113.708C215.489 113.357 216.404 113.184 217.326 113.202C218.248 113.219 219.155 113.426 219.986 113.808C220.461 114.045 220.988 114.169 221.524 114.171C223.983 114.171 225.977 111.505 225.977 108.215C225.999 106.947 225.687 105.694 225.069 104.572V104.572Z" fill="#F2F2F2"/>
<path opacity="0.03" d="M218.412 113.289C217.128 113.056 215.8 113.194 214.598 113.686C213.879 113.989 213.102 114.146 212.317 114.149C211.522 114.149 210.737 113.989 210.013 113.677C209.16 113.321 208.237 113.145 207.306 113.163C206.376 113.181 205.461 113.393 204.624 113.782C204.146 114.024 203.614 114.151 203.073 114.153C200.888 114.153 199.072 112.046 198.693 109.271C199.129 108.966 199.499 108.584 199.783 108.145C201.066 106.169 203.05 104.903 205.258 104.903C207.467 104.903 209.447 106.155 210.734 108.106C211.118 108.698 211.656 109.186 212.295 109.521C212.935 109.856 213.654 110.027 214.384 110.017H214.438C216.172 110.008 217.682 111.343 218.412 113.289Z" fill="black"/>
<path d="M242.041 37.4707L247.713 40.9133L244.268 34.9227C245.244 34.1795 246.451 33.7681 247.699 33.7533H247.79C248.184 33.7568 248.578 33.7291 248.967 33.6704L250.893 34.8354L250.053 33.3956C251.415 32.9416 252.592 32.088 253.416 30.9566L256.861 33.0421L254.684 29.2637C256.696 26.9512 259.411 25.5375 262.395 25.5375C265.976 25.5375 269.161 27.5708 271.219 30.7428C271.827 31.692 272.688 32.4701 273.713 32.9982C274.738 33.5262 275.891 33.7852 277.054 33.749H277.246C281.197 33.749 284.4 38.0292 284.4 43.3174C284.4 48.6055 281.206 52.8814 277.246 52.8814C276.378 52.8786 275.523 52.675 274.755 52.288C273.409 51.6605 271.936 51.321 270.439 51.2931C268.942 51.2653 267.456 51.5497 266.086 52.1266C264.921 52.6226 263.661 52.8797 262.386 52.8814C261.128 52.8807 259.885 52.628 258.736 52.1396C257.377 51.5769 255.907 51.3001 254.426 51.3279C252.946 51.3558 251.488 51.6877 250.154 52.3011C249.391 52.6794 248.545 52.8783 247.685 52.8814C243.734 52.8814 240.531 48.6011 240.531 43.3174C240.514 41.2783 241.034 39.2678 242.041 37.4707V37.4707Z" fill="#F2F2F2"/>
<path opacity="0.03" d="M252.718 51.4721C254.783 51.0959 256.918 51.3177 258.85 52.1091C260.008 52.6038 261.261 52.8595 262.529 52.8595C263.798 52.8595 265.051 52.6038 266.209 52.1091C267.58 51.5345 269.065 51.2513 270.562 51.2792C272.059 51.3071 273.531 51.6453 274.878 52.2705C275.645 52.6608 276.5 52.866 277.369 52.8683C280.878 52.8683 283.798 49.4868 284.409 45.0146C283.706 44.5256 283.11 43.9107 282.652 43.2039C280.595 40.0362 277.406 37.9987 273.829 37.9987C270.252 37.9987 267.099 40.0101 265.041 43.1472C264.426 44.0931 263.566 44.8713 262.545 45.4064C261.523 45.9414 260.375 46.2153 259.21 46.2014H259.119C256.318 46.2057 253.904 48.348 252.718 51.4721Z" fill="black"/>
<path d="M147.935 135.236C147.698 134.891 146.534 135.236 145.339 135.982C145.129 136.117 144.928 136.257 144.746 136.396C143.914 135.983 143.017 135.703 142.09 135.567L142.141 135.532C143.347 134.776 144.465 133.899 145.476 132.915H142.907L146.635 131.545C147.091 130.851 147.237 130.27 146.986 129.908C146.311 128.94 143.053 129.873 139.686 132.003C138.169 132.928 136.805 134.065 135.639 135.375C132.902 135.681 130.981 136.449 130.981 137.343C130.981 137.963 131.893 138.521 133.376 138.91L133.289 138.962C129.94 141.087 127.769 143.6 128.444 144.569C129.037 145.441 131.638 144.795 134.549 143.177L132.619 142.304L135.662 142.505L135.726 142.465C136.05 142.26 136.36 142.051 136.661 141.842L134.38 140.829L137.724 141.047C138.357 140.546 138.949 139.999 139.494 139.411C142.611 139.254 145.047 138.539 145.471 137.614C145.73 137.501 145.983 137.376 146.229 137.238C146.658 136.972 147.055 136.662 147.415 136.313H146.502L147.83 135.825C147.976 135.572 148.026 135.367 147.935 135.236Z" fill="#F2F2F2"/>
<path d="M59.3036 267.771C59.3143 269.264 59.1614 270.754 58.8473 272.217C58.7835 272.492 58.7196 272.762 58.6557 273.024C56.9539 279.547 52.1541 284.32 46.4282 284.626C46.2365 284.626 46.0449 284.626 45.8442 284.626C39.7897 284.626 34.6706 279.63 32.9779 272.749C32.9323 272.566 32.8912 272.383 32.8456 272.199C32.5239 270.737 32.3633 269.247 32.3665 267.753C32.3665 258.434 38.4027 250.881 45.8442 250.881C53.2856 250.881 59.3036 258.451 59.3036 267.771Z" fill="#3F3D56"/>
<path opacity="0.1" d="M59.3036 267.771C59.3143 269.264 59.1614 270.754 58.8473 272.217C58.7835 272.492 58.7196 272.762 58.6557 273.024C58.4504 273.024 58.2542 273.024 58.0489 273.002C56.5658 272.923 55.0918 272.729 53.6415 272.422C52.3551 272.806 51.0405 273.098 49.7086 273.295C48.6883 273.442 47.6601 273.533 46.6289 273.569C46.2822 273.569 45.9354 273.569 45.5887 273.569C44.3542 273.57 43.121 273.492 41.8976 273.334C39.9203 273.082 37.9784 272.621 36.1078 271.959C35.0817 272.285 34.0367 272.553 32.9779 272.762C32.9323 272.579 32.8912 272.396 32.8456 272.212C32.5239 270.751 32.3633 269.26 32.3665 267.766C32.3665 258.447 38.4027 250.894 45.8442 250.894C53.2856 250.894 59.3036 258.451 59.3036 267.771Z" fill="black"/>
<path d="M88.0566 236.339C88.0585 232.246 87.0535 228.211 85.1229 224.558L69.2681 229.275L83.1838 221.447C80.8512 218.222 77.7906 215.539 74.2283 213.597C70.6659 211.654 66.6928 210.502 62.6023 210.225C61.949 209.268 61.2312 208.353 60.4534 207.485L37.6682 214.261L56.3471 203.781C52.7777 201.159 48.5873 199.419 44.1471 198.715C39.7068 198.012 35.1536 198.366 30.8906 199.747C26.6276 201.127 22.7863 203.492 19.7069 206.631C16.6274 209.77 14.4049 213.586 13.2359 217.743L32.7406 239.21L11.5614 224.584C6.18164 228.21 2.34659 233.567 0.757697 239.675C-0.831195 245.783 -0.0677307 252.234 2.90846 257.848C5.88464 263.462 10.8746 267.864 16.9658 270.248C23.0569 272.633 29.8421 272.84 36.0804 270.834C41.716 272.808 47.8724 272.964 53.6096 271.279C57.6122 272.12 61.761 272.092 65.751 271.198C69.741 270.304 73.4707 268.566 76.6659 266.112C79.861 263.658 82.4404 260.55 84.2142 257.018C85.988 253.485 86.9112 249.617 86.916 245.698C86.916 245.113 86.8931 244.537 86.8521 243.952C87.6443 241.485 88.0502 238.919 88.0566 236.339V236.339Z" fill="#57B894"/>
<path opacity="0.1" d="M87.5821 241.199C79.2112 239.683 70.6276 239.578 62.219 240.889C52.7016 242.399 42.9743 245.711 33.6668 243.289C28.1918 241.867 23.4742 238.581 18.1543 236.744C13.0006 235.029 7.44954 234.717 2.12158 235.846C0.0892883 240.49 -0.501346 245.595 0.420289 250.552C1.34192 255.509 3.73683 260.107 7.31866 263.796C10.9005 267.485 15.5177 270.11 20.6182 271.357C25.7187 272.603 31.0867 272.419 36.0804 270.825C41.715 272.802 47.8713 272.961 53.6096 271.279C57.6121 272.12 61.761 272.092 65.751 271.198C69.741 270.304 73.4707 268.566 76.6659 266.112C79.861 263.658 82.4403 260.55 84.2142 257.018C85.988 253.485 86.9112 249.617 86.9159 245.698C86.9159 245.113 86.8931 244.537 86.852 243.952C87.1497 243.049 87.3935 242.129 87.5821 241.199Z" fill="black"/>
<path d="M313.23 296.384C314.398 296.384 315.526 296.188 316.614 295.796C317.702 295.396 318.674 294.836 319.53 294.116C320.394 293.388 321.078 292.528 321.582 291.536C322.086 290.536 322.338 289.432 322.338 288.224V285.224H313.182V288.236H318.378V288.536C318.378 289.352 318.146 290.084 317.682 290.732C317.218 291.372 316.606 291.88 315.846 292.256C315.094 292.624 314.286 292.808 313.422 292.808C312.358 292.808 311.394 292.52 310.53 291.944C309.674 291.368 308.994 290.564 308.49 289.532C307.986 288.5 307.734 287.3 307.734 285.932C307.734 284.668 307.958 283.54 308.406 282.548C308.862 281.548 309.526 280.76 310.398 280.184C311.27 279.6 312.33 279.308 313.578 279.308C314.538 279.308 315.51 279.488 316.494 279.848C317.478 280.208 318.322 280.708 319.026 281.348L320.85 278.336C319.866 277.528 318.722 276.912 317.418 276.488C316.122 276.056 314.826 275.84 313.53 275.84C312.002 275.84 310.622 276.112 309.39 276.656C308.158 277.192 307.106 277.936 306.234 278.888C305.362 279.832 304.694 280.924 304.23 282.164C303.766 283.396 303.534 284.708 303.534 286.1C303.534 287.556 303.778 288.908 304.266 290.156C304.762 291.404 305.45 292.496 306.33 293.432C307.218 294.36 308.25 295.084 309.426 295.604C310.602 296.124 311.87 296.384 313.23 296.384ZM325.082 302.24H329.294L338.69 283.712H334.466L331.202 290.912L327.434 283.712H323.21L329.054 294.464L325.082 302.24ZM340.727 296H344.411V288.524C344.411 287.9 344.639 287.368 345.095 286.928C345.559 286.488 346.147 286.268 346.859 286.268C347.571 286.268 348.127 286.496 348.527 286.952C348.935 287.408 349.139 288.016 349.139 288.776V296H352.823V288.488C352.823 287.872 353.047 287.348 353.495 286.916C353.951 286.484 354.539 286.268 355.259 286.268C355.955 286.268 356.511 286.5 356.927 286.964C357.343 287.42 357.551 288.048 357.551 288.848V296H361.235V287.84C361.235 286.92 361.035 286.124 360.635 285.452C360.243 284.772 359.703 284.248 359.015 283.88C358.327 283.512 357.539 283.328 356.651 283.328C355.763 283.328 354.975 283.524 354.287 283.916C353.599 284.308 352.955 284.892 352.355 285.668C352.027 284.956 351.483 284.388 350.723 283.964C349.963 283.54 349.111 283.328 348.167 283.328C346.831 283.328 345.579 283.912 344.411 285.08V283.712H340.727V296ZM371.071 296.384C372.511 296.384 373.771 296.148 374.851 295.676C375.931 295.196 376.771 294.508 377.371 293.612C377.979 292.708 378.283 291.62 378.283 290.348C378.283 289.196 378.031 288.252 377.527 287.516C377.031 286.772 376.323 286.136 375.403 285.608C374.491 285.072 373.415 284.548 372.175 284.036C371.599 283.796 371.091 283.576 370.651 283.376C370.211 283.176 369.867 282.94 369.619 282.668C369.379 282.388 369.259 282.024 369.259 281.576C369.259 280.968 369.491 280.448 369.955 280.016C370.427 279.584 371.087 279.368 371.935 279.368C372.695 279.368 373.431 279.524 374.143 279.836C374.863 280.148 375.479 280.52 375.991 280.952L377.611 277.904C377.179 277.536 376.651 277.196 376.027 276.884C375.403 276.572 374.731 276.32 374.011 276.128C373.291 275.936 372.571 275.84 371.851 275.84C370.579 275.84 369.463 276.116 368.503 276.668C367.543 277.212 366.795 277.928 366.259 278.816C365.731 279.704 365.467 280.652 365.467 281.66C365.467 282.516 365.655 283.264 366.031 283.904C366.407 284.536 366.903 285.076 367.519 285.524C368.135 285.972 368.799 286.356 369.511 286.676C370.479 287.092 371.299 287.468 371.971 287.804C372.651 288.14 373.167 288.508 373.519 288.908C373.871 289.3 374.047 289.808 374.047 290.432C374.047 291.216 373.775 291.804 373.231 292.196C372.695 292.588 372.011 292.784 371.179 292.784C370.387 292.784 369.651 292.64 368.971 292.352C368.291 292.064 367.683 291.724 367.147 291.332C366.619 290.94 366.175 290.588 365.815 290.276L363.823 293.492C364.159 293.82 364.659 294.212 365.323 294.668C365.995 295.124 366.811 295.524 367.771 295.868C368.739 296.212 369.839 296.384 371.071 296.384ZM385.978 296.384C386.474 296.384 386.978 296.32 387.49 296.192C388.01 296.064 388.478 295.888 388.894 295.664L387.97 292.712C387.626 292.968 387.258 293.096 386.866 293.096C386.146 293.096 385.786 292.624 385.786 291.68V286.508H388.486V283.712H385.786V279.104H382.102V283.712H380.458V286.508H382.102V291.944C382.102 293.344 382.442 294.436 383.122 295.22C383.81 295.996 384.762 296.384 385.978 296.384ZM397.155 296.384C397.995 296.384 398.779 296.212 399.507 295.868C400.243 295.516 400.891 295.02 401.451 294.38V296H405.135V283.712H401.451V285.212C400.963 284.62 400.343 284.16 399.591 283.832C398.839 283.496 398.027 283.328 397.155 283.328C395.971 283.328 394.919 283.616 393.999 284.192C393.087 284.76 392.371 285.536 391.851 286.52C391.331 287.496 391.071 288.6 391.071 289.832C391.071 291.096 391.343 292.224 391.887 293.216C392.431 294.2 393.159 294.976 394.071 295.544C394.991 296.104 396.019 296.384 397.155 296.384ZM398.247 293.252C397.295 293.252 396.507 292.932 395.883 292.292C395.259 291.652 394.947 290.84 394.947 289.856C394.947 288.872 395.259 288.06 395.883 287.42C396.515 286.78 397.303 286.46 398.247 286.46C399.199 286.46 399.983 286.78 400.599 287.42C401.223 288.052 401.535 288.864 401.535 289.856C401.535 290.848 401.227 291.664 400.611 292.304C399.995 292.936 399.207 293.252 398.247 293.252ZM413.541 296.384C414.037 296.384 414.541 296.32 415.053 296.192C415.573 296.064 416.041 295.888 416.457 295.664L415.533 292.712C415.189 292.968 414.821 293.096 414.429 293.096C413.709 293.096 413.349 292.624 413.349 291.68V286.508H416.049V283.712H413.349V279.104H409.665V283.712H408.021V286.508H409.665V291.944C409.665 293.344 410.005 294.436 410.685 295.22C411.373 295.996 412.325 296.384 413.541 296.384ZM423.121 296.384C424.817 296.384 426.137 296.024 427.081 295.304C428.033 294.576 428.509 293.544 428.509 292.208C428.509 291.48 428.373 290.9 428.101 290.468C427.829 290.028 427.453 289.672 426.973 289.4C426.501 289.128 425.957 288.88 425.341 288.656C424.965 288.52 424.569 288.372 424.153 288.212C423.745 288.044 423.397 287.852 423.109 287.636C422.829 287.42 422.689 287.172 422.689 286.892C422.689 286.588 422.825 286.336 423.097 286.136C423.369 285.936 423.733 285.836 424.189 285.836C424.997 285.836 425.921 286.168 426.961 286.832L428.221 284.468C426.701 283.724 425.349 283.352 424.165 283.352C423.189 283.352 422.325 283.516 421.573 283.844C420.829 284.172 420.245 284.628 419.821 285.212C419.397 285.788 419.185 286.456 419.185 287.216C419.185 287.848 419.325 288.368 419.605 288.776C419.893 289.176 420.265 289.508 420.721 289.772C421.177 290.036 421.653 290.272 422.149 290.48C423.013 290.84 423.649 291.124 424.057 291.332C424.465 291.532 424.669 291.868 424.669 292.34C424.669 292.764 424.525 293.092 424.237 293.324C423.957 293.548 423.585 293.66 423.121 293.66C421.985 293.66 420.889 293.1 419.833 291.98L418.285 294.452C419.389 295.74 421.001 296.384 423.121 296.384Z" fill="black"/>
</g>
<defs>
<clipPath id="clip0_11_16">
<rect width="485" height="312" fill="white"/>
</clipPath>
</defs>
</svg>
