<svg width="414" height="312" viewBox="0 0 414 312" fill="none" xmlns="http://www.w3.org/2000/svg">
<g clip-path="url(#clip0_2_365)">
<path d="M412.124 76.0977C413.529 74.3912 414.807 72.592 415.947 70.7135L388.974 66.4813L418.146 66.6863C420.946 60.8635 422.474 54.5555 422.635 48.1484C422.797 41.7414 421.589 35.3702 419.086 29.4251L379.949 48.8411L416.043 23.4694C412.661 17.8818 408.112 13.0201 402.68 9.18694C397.247 5.35381 391.048 2.63143 384.468 1.18936C377.887 -0.25271 371.067 -0.383568 364.431 0.804934C357.795 1.99344 351.486 4.47584 345.898 8.09751C340.309 11.7192 335.56 16.4026 331.946 21.8559C328.333 27.3092 325.932 33.4157 324.894 39.7949C323.855 46.1742 324.202 52.6895 325.911 58.9352C327.621 65.1808 330.657 71.0229 334.83 76.0977C332.645 78.7552 330.766 81.6296 329.223 84.6712L364.236 102.067L326.905 90.0859C324.282 97.496 323.633 105.415 325.016 113.125C326.399 120.836 329.77 128.095 334.826 134.245C329.6 140.6 326.175 148.136 324.882 156.126C323.589 164.116 324.472 172.289 327.445 179.858C330.418 187.426 335.381 194.133 341.855 199.333C348.329 204.532 356.096 208.048 364.404 209.54C363.754 211.294 363.425 213.142 363.433 215.003C363.404 217.756 364.142 220.467 365.572 222.856C364.169 225.257 363.433 227.96 363.433 230.71C363.433 233.46 364.169 236.164 365.572 238.564C364.169 240.964 363.433 243.668 363.433 246.417C363.433 249.167 364.169 251.871 365.572 254.271C364.169 256.671 363.433 259.375 363.433 262.125C363.433 264.874 364.169 267.578 365.572 269.978C364.142 272.368 363.404 275.079 363.433 277.832C363.433 284.931 368.027 290.682 373.698 290.682C379.369 290.682 383.964 284.931 383.964 277.832C383.991 275.079 383.251 272.368 381.82 269.978C383.225 267.579 383.964 264.875 383.964 262.125C383.964 259.375 383.225 256.67 381.82 254.271C383.225 251.872 383.964 249.168 383.964 246.417C383.964 243.667 383.225 240.963 381.82 238.564C383.225 236.165 383.964 233.46 383.964 230.71C383.964 227.96 383.225 225.256 381.82 222.856C383.251 220.467 383.991 217.756 383.964 215.003C383.971 213.116 383.633 211.242 382.965 209.466C391.225 207.911 398.929 204.355 405.341 199.138C411.752 193.921 416.655 187.217 419.582 179.668C422.508 172.119 423.359 163.979 422.053 156.026C420.747 148.073 417.328 140.573 412.124 134.245C418.942 125.957 422.649 115.717 422.649 105.171C422.649 94.6257 418.942 84.386 412.124 76.0977Z" fill="#F2F2F2"/>
<path d="M249.52 126.143C248.583 125.001 247.73 123.798 246.965 122.543L265.001 119.712L245.496 119.847C243.624 115.954 242.603 111.736 242.494 107.452C242.386 103.168 243.193 98.9085 244.867 94.9334L271.042 107.918L246.906 90.9498C249.164 87.2061 252.204 83.9475 255.837 81.3776C259.47 78.8076 263.618 76.9814 268.022 76.013C272.427 75.0445 276.992 74.9546 281.434 75.7488C285.876 76.5431 290.1 78.2044 293.84 80.6291C297.581 83.0539 300.759 86.19 303.176 89.8416C305.593 93.4933 307.196 97.5822 307.887 101.853C308.578 106.124 308.34 110.485 307.19 114.664C306.039 118.843 304 122.751 301.2 126.143C302.663 127.919 303.92 129.841 304.95 131.876L281.535 143.508L306.511 135.493C308.266 140.449 308.7 145.744 307.775 150.901C306.849 156.057 304.592 160.911 301.209 165.023C304.705 169.272 306.997 174.311 307.862 179.654C308.728 184.997 308.138 190.463 306.151 195.524C304.163 200.585 300.844 205.071 296.515 208.548C292.185 212.025 286.992 214.376 281.435 215.374C281.869 216.546 282.088 217.782 282.083 219.026C282.1 220.862 281.605 222.669 280.65 224.261C281.59 225.866 282.083 227.674 282.083 229.512C282.083 231.351 281.59 233.159 280.65 234.764C281.59 236.369 282.083 238.177 282.083 240.017C282.083 241.856 281.59 243.665 280.65 245.27C281.59 246.874 282.083 248.682 282.083 250.521C282.083 252.36 281.59 254.168 280.65 255.772C281.605 257.365 282.1 259.172 282.083 261.008C282.083 265.751 279.012 269.599 275.239 269.599C271.466 269.599 268.395 265.751 268.395 261.008C268.379 259.172 268.873 257.365 269.828 255.772C268.889 254.168 268.395 252.36 268.395 250.521C268.395 248.682 268.889 246.874 269.828 245.27C268.889 243.665 268.395 241.856 268.395 240.017C268.395 238.177 268.889 236.369 269.828 234.764C268.889 233.159 268.395 231.351 268.395 229.512C268.395 227.674 268.889 225.866 269.828 224.261C268.873 222.669 268.378 220.862 268.395 219.026C268.391 217.763 268.618 216.509 269.066 215.321C263.542 214.282 258.39 211.905 254.103 208.417C249.815 204.928 246.535 200.446 244.578 195.398C242.621 190.35 242.051 184.907 242.924 179.588C243.796 174.27 246.082 169.255 249.561 165.023C245.004 159.48 242.526 152.634 242.526 145.583C242.526 138.532 245.004 131.686 249.561 126.143H249.52Z" fill="#F2F2F2"/>
<path d="M212.486 312C338.691 312 441 299.693 441 284.512C441 269.331 338.691 257.024 212.486 257.024C86.2818 257.024 -16.0272 269.331 -16.0272 284.512C-16.0272 299.693 86.2818 312 212.486 312Z" fill="#F2F2F2"/>
<path d="M282.662 222.686C282.662 223.559 282.635 224.432 282.585 225.269C282.585 225.396 282.585 225.518 282.585 225.645C282.341 229.331 281.641 232.976 280.5 236.504C280.468 236.614 280.427 236.731 280.39 236.84C279.221 240.353 277.651 243.731 275.709 246.915L275.513 247.229C273.427 250.585 270.981 253.723 268.213 256.592L267.93 256.88C264.82 260.072 261.376 262.949 257.651 265.467C257.523 265.559 257.391 265.65 257.263 265.733C253.361 268.345 249.21 270.601 244.867 272.47C244.269 272.727 243.667 272.98 243.042 273.229L242.494 273.447C235.848 276.063 228.884 277.871 221.767 278.827L220.895 278.94C216.899 279.445 212.872 279.697 208.841 279.695C178.966 279.695 153.233 265.986 141.621 246.26C140.84 244.943 140.126 243.599 139.482 242.229L139.217 241.666C136.752 236.303 135.349 230.55 135.079 224.698C135.079 224.554 135.079 224.414 135.079 224.261C135.079 223.738 135.056 223.21 135.056 222.682C135.054 218.603 135.612 214.541 136.717 210.6C136.749 210.478 136.781 210.36 136.817 210.243C137.977 206.228 139.664 202.369 141.836 198.759C141.895 198.658 141.954 198.554 142.018 198.453C144.159 194.957 146.692 191.694 149.574 188.724C149.649 188.634 149.73 188.548 149.816 188.466L149.852 188.431C150.213 188.065 150.578 187.694 150.952 187.332L151.513 186.791C151.882 186.437 152.261 186.093 152.64 185.744H152.663C153.575 184.923 154.504 184.128 155.45 183.357C156.764 182.292 158.138 181.267 159.557 180.281L159.862 180.063C163.63 177.493 167.634 175.257 171.825 173.383C171.948 173.326 172.076 173.265 172.199 173.217C176.922 171.131 181.839 169.475 186.886 168.269C187.046 168.226 187.201 168.191 187.342 168.156C193.593 166.697 199.99 165.885 206.423 165.734C206.637 165.734 206.852 165.734 207.071 165.734C207.655 165.734 208.243 165.712 208.832 165.712C238.438 165.712 263.974 179.181 275.737 198.61C275.841 198.785 275.942 198.96 276.047 199.13L276.503 199.893C276.754 200.33 276.991 200.766 277.228 201.228C277.338 201.438 277.443 201.643 277.548 201.852C277.612 201.974 277.68 202.097 277.739 202.223C279.461 205.646 280.752 209.252 281.586 212.965C281.622 213.109 281.65 213.249 281.682 213.402C282.332 216.457 282.661 219.568 282.662 222.686Z" fill="#087E8B"/>
<g opacity="0.2">
<path opacity="0.2" d="M276.06 199.09C272.687 197.869 269.341 196.598 266.023 195.277C245.315 187.079 225.386 177.186 206.459 165.708H207.107C228.807 178.806 251.807 189.82 275.773 198.589C275.86 198.759 275.96 198.92 276.06 199.09Z" fill="#F2F2F2"/>
</g>
<g opacity="0.2">
<path opacity="0.2" d="M281.677 213.349C273.464 210.731 265.339 207.823 257.299 204.623C236.379 196.347 216.253 186.34 197.152 174.718C193.55 172.528 190.129 170.368 186.886 168.239L187.342 168.13C190.509 170.198 193.855 172.304 197.38 174.447C223.731 190.459 252.001 203.38 281.581 212.93C281.618 213.07 281.645 213.21 281.677 213.349Z" fill="#F2F2F2"/>
</g>
<g opacity="0.2">
<path opacity="0.2" d="M282.585 225.269C282.585 225.396 282.585 225.522 282.585 225.645C271.121 222.302 259.798 218.422 248.617 214.004C227.692 205.721 207.564 195.707 188.46 184.077C182.415 180.399 176.867 176.795 171.839 173.357L172.213 173.186C177.2 176.594 182.707 180.167 188.684 183.806C217.909 201.574 249.49 215.518 282.585 225.269Z" fill="#F2F2F2"/>
</g>
<g opacity="0.2">
<path opacity="0.2" d="M280.477 236.5C280.445 236.618 280.404 236.731 280.368 236.845C266.617 233.092 253.102 228.59 239.889 223.363C218.967 215.082 198.841 205.07 179.741 193.44C172.231 188.872 165.492 184.413 159.557 180.255L159.862 180.041C165.794 184.182 172.491 188.619 179.965 193.17C211.135 212.125 244.983 226.717 280.477 236.5Z" fill="#F2F2F2"/>
</g>
<g opacity="0.2">
<path opacity="0.2" d="M275.686 246.915L275.49 247.229C260.419 243.284 245.621 238.44 231.184 232.726C210.261 224.443 190.134 214.431 171.031 202.803C162.983 197.904 155.811 193.126 149.588 188.715C149.661 188.632 149.743 188.545 149.829 188.462C156.062 192.869 163.229 197.624 171.273 202.533C195.167 217.084 230.955 235.187 275.686 246.915Z" fill="#F2F2F2"/>
</g>
<g opacity="0.2">
<path opacity="0.2" d="M268.195 256.592L267.912 256.88C252.451 252.887 237.276 247.946 222.478 242.089C201.556 233.807 181.428 223.795 162.326 212.167C154.698 207.516 147.854 202.982 141.836 198.759C141.895 198.659 141.954 198.558 142.018 198.458C148.036 202.686 154.898 207.232 162.55 211.892C186.676 226.583 222.898 244.877 268.195 256.592Z" fill="#F2F2F2"/>
</g>
<g opacity="0.2">
<path opacity="0.2" d="M257.632 265.467C257.505 265.559 257.372 265.65 257.245 265.733C242.462 261.828 227.945 257.059 213.773 251.453C192.85 243.172 172.723 233.159 153.621 221.53C147.461 217.778 141.808 214.113 136.703 210.6C136.735 210.483 136.767 210.365 136.803 210.247C141.945 213.768 147.635 217.477 153.849 221.26C177.642 235.745 213.203 253.735 257.632 265.467Z" fill="#F2F2F2"/>
</g>
<g opacity="0.2">
<path opacity="0.2" d="M243.037 273.229L242.489 273.447C229.794 269.872 217.306 265.655 205.077 260.816C193.214 256.126 181.53 250.833 170.133 244.999C161.555 240.601 153.152 235.899 144.925 230.893C141.484 228.799 138.209 226.734 135.097 224.698C135.097 224.554 135.097 224.414 135.097 224.261C138.285 226.341 141.644 228.459 145.176 230.614C152.672 235.182 161.341 240.095 171.086 245.056C194.014 256.744 218.121 266.183 243.037 273.229Z" fill="#F2F2F2"/>
</g>
<g opacity="0.2">
<path opacity="0.2" d="M221.767 278.827L220.895 278.94C212.631 276.296 204.449 273.374 196.349 270.175C178.822 263.237 161.851 255.077 145.573 245.763C143.541 244.6 141.518 243.421 139.504 242.229L139.24 241.666C141.457 242.987 143.766 244.332 146.166 245.702C170.054 259.298 195.4 270.403 221.767 278.827Z" fill="#F2F2F2"/>
</g>
<path opacity="0.1" d="M244.848 272.47C244.251 272.727 243.648 272.98 243.023 273.229L242.476 273.447C235.835 276.062 228.878 277.869 221.767 278.827L220.895 278.94C216.899 279.445 212.872 279.697 208.841 279.695C178.966 279.695 153.233 265.986 141.621 246.26C142.926 246.068 144.236 245.907 145.55 245.763L146.143 245.702C149.674 245.344 153.233 245.143 156.783 244.999C161.223 244.777 165.673 244.777 170.114 244.999C170.425 244.999 170.735 245.034 171.027 245.061C174.053 245.265 177.059 245.686 180.02 246.317C189.03 248.272 197.289 252.517 205.474 256.614C218.117 262.923 231.042 269.075 244.848 272.47Z" fill="black"/>
<path opacity="0.1" d="M275.755 198.571C263.993 179.142 238.456 165.673 208.85 165.673C208.262 165.673 207.673 165.673 207.089 165.673H206.441C200.008 165.822 193.611 166.634 187.361 168.095L186.904 168.204C181.859 169.413 176.942 171.07 172.218 173.152L171.844 173.322C167.651 175.196 163.647 177.434 159.881 180.006L159.575 180.22C156.069 182.636 152.819 185.375 149.87 188.396C149.487 192.118 148.83 195.761 147.133 199.117C145.938 201.473 144.701 203.742 146.394 206.098C147.53 207.681 149.989 209.689 152.083 209.767C157.837 209.99 161.035 202.633 163.745 198.968C167.897 193.357 174.052 189.461 180.065 185.696C182.634 184.086 185.23 182.462 188.127 181.498C190.57 180.742 193.112 180.315 195.678 180.229C202.672 179.853 209.822 180.87 216.209 183.641C223.509 186.804 229.988 192.258 237.954 193.013C241.563 193.353 245.254 192.685 248.79 193.475C255.073 194.884 259.43 200.552 265.544 202.533C269.5 203.816 273.756 203.406 277.781 202.149C277.26 201.102 276.702 200.071 276.106 199.056C275.96 198.92 275.86 198.759 275.755 198.571Z" fill="black"/>
<path d="M96.8175 220.435C94.6548 222.617 92.2276 224.532 89.9965 226.648C81.7338 234.502 76.4367 244.707 69.0089 253.263C67.006 255.571 64.8297 257.788 63.3377 260.423C61.8458 263.059 61.0975 266.265 62.1652 269.084C63.0777 271.501 65.181 273.312 67.225 274.983C68.4858 276.09 69.8705 277.06 71.3541 277.876C74.7851 279.621 78.8457 279.717 82.733 279.774C84.8774 279.804 87.4917 279.573 88.4087 277.719C84.9339 276.135 81.7334 274.051 78.9187 271.54C77.3082 270.101 75.7888 268.451 75.1364 266.44C74.0231 263.011 75.6702 259.276 78.0017 256.461C80.3331 253.647 83.3398 251.391 85.6165 248.538C87.8932 245.684 89.3623 242.408 92.1044 240.078C94.0024 238.468 96.3612 237.46 98.4919 236.12C101.604 234.161 104.172 231.526 106.704 228.917L120.164 215.073C120.488 214.808 120.712 214.447 120.798 214.047C120.853 213.528 120.451 213.074 120.068 212.699C117.139 209.824 111.618 204.776 107.594 208.563C103.716 212.21 100.572 216.648 96.8175 220.435Z" fill="#A0616A"/>
<path opacity="0.1" d="M96.8175 220.435C94.6548 222.617 92.2276 224.532 89.9965 226.648C81.7338 234.502 76.4367 244.707 69.0089 253.263C67.006 255.571 64.8297 257.788 63.3377 260.423C61.8458 263.059 61.0975 266.265 62.1652 269.084C63.0777 271.501 65.181 273.312 67.225 274.983C68.4858 276.09 69.8705 277.06 71.3541 277.876C74.7851 279.621 78.8457 279.717 82.733 279.774C84.8774 279.804 87.4917 279.573 88.4087 277.719C84.9339 276.135 81.7334 274.051 78.9187 271.54C77.3082 270.101 75.7888 268.451 75.1364 266.44C74.0231 263.011 75.6702 259.276 78.0017 256.461C80.3331 253.647 83.3398 251.391 85.6165 248.538C87.8932 245.684 89.3623 242.408 92.1044 240.078C94.0024 238.468 96.3612 237.46 98.4919 236.12C101.604 234.161 104.172 231.526 106.704 228.917L120.164 215.073C120.488 214.808 120.712 214.447 120.798 214.047C120.853 213.528 120.451 213.074 120.068 212.699C117.139 209.824 111.618 204.776 107.594 208.563C103.716 212.21 100.572 216.648 96.8175 220.435Z" fill="black"/>
<path d="M116.053 195.268C118.768 194.719 121.692 196.102 124.316 195.242C125.803 194.753 126.939 193.619 128.011 192.52L132.391 188.056C133.628 186.795 134.887 185.508 135.649 183.937C136.324 182.55 136.562 181.018 136.89 179.517C137.693 175.678 139.066 171.742 142.082 169.098C145.842 165.791 151.636 165.171 156.463 166.751C161.29 168.33 165.219 171.856 168.107 175.887C165.524 178.854 162.632 181.594 160.054 184.561C159.23 185.6 158.261 186.526 157.175 187.314C155.973 188.016 154.68 188.563 153.329 188.942C148.689 190.512 143.748 192.786 141.836 197.127C141.17 198.637 140.923 200.282 140.558 201.883C139.856 204.911 138.574 207.908 136.256 210.077C133.938 212.245 130.439 213.432 127.35 212.494C123.933 211.456 121.838 208.253 120.077 205.269C118.205 202.154 116.847 198.78 116.053 195.268Z" fill="#A0616A"/>
<path opacity="0.1" d="M116.053 195.268C118.768 194.719 121.692 196.102 124.316 195.242C125.803 194.753 126.939 193.619 128.011 192.52L132.391 188.056C133.628 186.795 134.887 185.508 135.649 183.937C136.324 182.55 136.562 181.018 136.89 179.517C137.693 175.678 139.066 171.742 142.082 169.098C145.842 165.791 151.636 165.171 156.463 166.751C161.29 168.33 165.219 171.856 168.107 175.887C165.524 178.854 162.632 181.594 160.054 184.561C159.23 185.6 158.261 186.526 157.175 187.314C155.973 188.016 154.68 188.563 153.329 188.942C148.689 190.512 143.748 192.786 141.836 197.127C141.17 198.637 140.923 200.282 140.558 201.883C139.856 204.911 138.574 207.908 136.256 210.077C133.938 212.245 130.439 213.432 127.35 212.494C123.933 211.456 121.838 208.253 120.077 205.269C118.205 202.154 116.847 198.78 116.053 195.268Z" fill="black"/>
<path d="M234.911 177.938C252.057 183.806 269.103 190.757 283.274 201.717C289.762 206.739 295.542 212.533 301.711 217.913C304.941 220.732 308.276 223.432 311.612 226.138L335.287 245.335C338.216 247.713 341.158 250.096 344.412 252.085C352.063 256.789 361.188 259.18 368.68 264.237C368.666 266.848 369.113 269.442 370.003 271.911C370.342 272.82 370.984 273.598 371.829 274.125C372.674 274.652 373.677 274.9 374.684 274.83C386.482 274.18 398.445 279.656 410.331 278.277C410.674 278.241 411.003 278.13 411.294 277.952C411.584 277.774 411.828 277.535 412.005 277.252C412.804 275.917 411.439 274.669 410.244 273.87L394.106 263.067C391.447 261.287 388.787 259.507 386.076 257.801C376.276 251.64 365.81 246.409 356.726 239.336C354.787 237.826 352.921 236.238 351.05 234.646C341.158 226.242 331.262 217.83 321.886 208.903C308.258 195.923 295.369 181.442 281.859 168.348C280.575 167.042 279.191 165.83 277.717 164.722C276.276 163.74 274.765 162.855 273.195 162.074L256.045 153.064C253.449 151.698 250.57 150.289 247.673 150.825C246.955 150.656 246.204 150.659 245.488 150.835C244.771 151.01 244.111 151.351 243.566 151.829C242.462 152.802 241.741 154.089 241.011 155.35C240.058 156.877 239.307 158.511 238.776 160.215C238.164 162.532 238.365 165.014 237.658 167.292C237.202 168.797 236.353 170.172 235.778 171.655C235.024 173.666 234.729 175.808 234.911 177.938Z" fill="#A0616A"/>
<path opacity="0.1" d="M234.911 177.938C252.057 183.806 269.103 190.757 283.274 201.717C289.762 206.739 295.542 212.533 301.711 217.913C304.941 220.732 308.276 223.432 311.612 226.138L335.287 245.335C338.216 247.713 341.158 250.096 344.412 252.085C352.063 256.789 361.188 259.18 368.68 264.237C368.666 266.848 369.113 269.442 370.003 271.911C370.342 272.82 370.984 273.598 371.829 274.125C372.674 274.652 373.677 274.9 374.684 274.83C386.482 274.18 398.445 279.656 410.331 278.277C410.674 278.241 411.003 278.13 411.294 277.952C411.584 277.774 411.828 277.535 412.005 277.252C412.804 275.917 411.439 274.669 410.244 273.87L394.106 263.067C391.447 261.287 388.787 259.507 386.076 257.801C376.276 251.64 365.81 246.409 356.726 239.336C354.787 237.826 352.921 236.238 351.05 234.646C341.158 226.242 331.262 217.83 321.886 208.903C308.258 195.923 295.369 181.442 281.859 168.348C280.575 167.042 279.191 165.83 277.717 164.722C276.276 163.74 274.765 162.855 273.195 162.074L256.045 153.064C253.449 151.698 250.57 150.289 247.673 150.825C246.955 150.656 246.204 150.659 245.488 150.835C244.771 151.01 244.111 151.351 243.566 151.829C242.462 152.802 241.741 154.089 241.011 155.35C240.058 156.877 239.307 158.511 238.776 160.215C238.164 162.532 238.365 165.014 237.658 167.292C237.202 168.797 236.353 170.172 235.778 171.655C235.024 173.666 234.729 175.808 234.911 177.938Z" fill="black"/>
<path d="M118.576 229.201C129.237 229.201 137.88 220.936 137.88 210.74C137.88 200.545 129.237 192.28 118.576 192.28C107.915 192.28 99.2721 200.545 99.2721 210.74C99.2721 220.936 107.915 229.201 118.576 229.201Z" fill="#A0616A"/>
<path d="M236.052 144.08C238.748 144.124 241.81 144.324 243.507 146.327C245.204 148.33 244.821 151.074 244.392 153.544C243.051 161.349 241.655 169.295 237.922 176.354C237.661 176.991 237.197 177.533 236.595 177.903C235.523 178.431 234.25 177.811 233.223 177.205C225.745 172.763 218.267 167.981 209.744 165.861C209.23 165.798 208.758 165.557 208.417 165.184C208.3 164.95 208.233 164.696 208.219 164.437C208.206 164.178 208.247 163.919 208.339 163.675C209.188 160.058 210.26 156.484 210.926 152.828C211.327 150.646 210.584 145.411 212.605 144.058C214.745 142.618 220.909 143.836 223.441 143.875L236.052 144.08Z" fill="#A0616A"/>
<path d="M245.131 180.111C262.277 185.979 279.323 192.93 293.471 203.886C299.959 208.912 305.74 214.706 311.908 220.086C315.138 222.905 318.474 225.605 321.809 228.306L345.484 247.504C348.413 249.878 351.356 252.264 354.609 254.249C362.292 258.97 371.417 261.353 378.881 266.388C378.867 269 379.315 271.597 380.204 274.067C380.545 274.975 381.186 275.752 382.031 276.28C382.877 276.807 383.879 277.055 384.886 276.986C396.684 276.331 408.647 281.811 420.533 280.433C420.876 280.396 421.205 280.284 421.496 280.105C421.786 279.927 422.03 279.686 422.207 279.403C423.005 278.094 421.641 276.82 420.446 276.022L404.308 265.223C401.648 263.443 398.988 261.662 396.278 259.956C386.496 253.796 376.03 248.564 366.946 241.496C365.007 239.986 363.141 238.394 361.27 236.806C351.378 228.402 341.482 219.99 332.102 211.063C318.478 198.083 305.589 183.601 292.079 170.486C290.788 169.197 289.399 168.001 287.923 166.908C286.481 165.929 284.97 165.046 283.402 164.264L266.251 155.254C263.655 153.888 260.776 152.479 257.879 153.016C257.161 152.845 256.411 152.847 255.694 153.021C254.978 153.195 254.318 153.537 253.773 154.015C252.668 154.988 251.948 156.279 251.218 157.54C250.265 159.066 249.514 160.698 248.982 162.401C248.371 164.718 248.571 167.2 247.864 169.482C247.408 170.987 246.559 172.362 245.984 173.845C245.238 175.852 244.947 177.988 245.131 180.111Z" fill="#A0616A"/>
<path d="M250.821 181.463L251.364 173.911C251.519 171.799 251.674 169.661 252.354 167.65C253.125 165.368 254.53 163.339 255.958 161.367C256.72 160.217 257.641 159.17 258.696 158.256C260.251 157.004 262.263 156.323 263.714 154.966C264.129 154.578 264.517 154.006 264.271 153.504C264.157 153.317 264.001 153.156 263.815 153.033C260.238 150.228 255.949 148.404 251.715 146.61L243.712 143.225C240.345 147.588 236.919 152.086 235.185 157.261C234.923 158.18 234.595 159.081 234.204 159.957C233.177 162.004 231.229 163.496 229.993 165.433C228.829 167.257 228.346 169.39 227.885 171.48C227.611 172.706 227.346 174.015 227.807 175.189C228.318 176.498 229.632 177.345 230.828 178.108C236.125 181.428 241.718 184.854 248.037 185.325C249.196 185.408 250.738 185.962 251.108 184.888C251.368 184.168 250.761 182.345 250.821 181.463Z" fill="#3F3D56"/>
<path d="M92.6884 202.686C90.69 205.247 92.0314 208.977 94.1028 211.486C96.1742 213.995 98.9436 216.098 100.102 219.095C102.881 226.264 95.1293 233.494 95.394 241.121C95.6312 247.918 101.914 252.844 107.257 257.36C118.608 266.959 128.308 280.337 127.03 294.787C132.194 293.341 136.656 290.192 139.623 285.9C141.356 289.536 142.088 293.536 141.749 297.519C153.648 289.73 160.423 275.332 158.63 261.654C157.777 255.179 155.167 248.865 155.574 242.355C155.793 238.826 156.892 235.409 157.686 231.954C158.697 227.499 159.202 222.952 159.192 218.393C159.192 213.192 158.183 207.415 153.895 204.217C150.245 201.499 145.226 201.407 140.599 201.429C135.713 201.46 130.826 201.481 125.949 201.774C120.971 202.07 115.839 203.641 110.938 203.759C105.482 203.89 97.7938 196.141 92.6884 202.686Z" fill="#3F3D56"/>
<path d="M165.648 168.535C162.421 169.553 159.516 171.335 157.202 173.714C155.747 175.224 154.542 176.947 153.032 178.409C151.235 180.154 149.04 181.463 146.937 182.86C142.917 185.521 139.153 188.51 135.394 191.494L116.87 206.198C113.973 208.497 111.075 210.801 108.342 213.279C104.971 216.334 101.859 219.667 98.2592 222.481C96.1513 224.131 93.8838 225.601 91.9493 227.438C90.1243 229.183 88.646 231.195 87.1495 233.188C81.0531 241.281 74.5039 249.053 67.5307 256.47C64.5696 259.625 61.5082 262.731 57.9083 265.197C50.4441 270.341 44.7774 278.042 38.2165 284.215C37.6599 284.739 37.0485 285.485 37.3907 286.161C37.5946 286.485 37.9216 286.721 38.3032 286.82C43.103 288.531 47.2366 281.083 52.2371 282.139C54.5184 282.619 55.9191 284.682 57.5525 286.257C59.1858 287.833 61.9872 288.993 63.6936 287.488C63.1091 283.107 63.7043 278.655 65.4228 274.555C68.2196 267.919 73.7676 262.688 79.6898 258.307C85.6119 253.927 92.0588 250.192 97.6205 245.397C106.951 237.355 113.767 226.386 124.836 220.71C129.17 218.485 133.961 217.184 138.282 214.907C146.645 210.483 152.494 202.69 157.065 194.675C157.604 193.576 158.332 192.571 159.219 191.704C160.173 190.985 161.234 190.407 162.367 189.989C168.246 187.394 173.521 183.699 177.88 179.12C176.511 178.182 175.229 177.179 173.865 176.236C172.754 175.533 171.738 174.702 170.84 173.762C169.927 172.733 169.334 171.498 168.558 170.372C167.783 169.247 166.971 168.941 165.648 168.535Z" fill="#A0616A"/>
<path d="M215.493 169.884C214.289 168.959 214.248 167.266 214.307 165.769C214.505 161.179 214.699 156.59 214.891 152.003C215.023 148.77 215.347 145.149 217.898 143.028C210.521 141.612 203.085 140.525 195.587 139.769C192.612 139.468 189.596 139.219 186.631 139.634C183.058 140.131 179.709 141.562 176.415 142.98C172.765 144.551 169.092 146.135 165.821 148.338C164.562 149.269 163.248 150.131 161.888 150.921C159.406 152.23 156.554 152.667 153.881 153.539C147.703 155.55 142.537 159.701 139.404 165.176C136.27 170.65 135.396 177.048 136.954 183.108C137.866 180.852 138.505 178.492 139.573 176.297C140.64 174.103 142.214 172.03 144.455 170.909C146.791 169.748 149.61 169.757 152.152 170.425C154.693 171.092 156.979 172.379 159.26 173.679C164.343 176.625 169.535 180.063 171.948 185.251C176.967 181.681 182.1 178.27 187.128 174.683C189.309 173.134 191.522 171.572 194.049 170.634C197.371 169.399 201.016 169.325 204.58 169.26C208.143 169.194 212.007 169.002 215.493 169.884Z" fill="#F76863"/>
<path d="M136.936 182.689L136.329 190.739L138.519 189.012L137.424 181.891L136.936 182.689Z" fill="#FF6584"/>
<path d="M54.7009 79.3133L47.6199 83.6066L51.9178 76.1544C50.6997 75.2246 49.192 74.7102 47.6336 74.6927H47.5195C47.0275 74.6996 46.5358 74.6646 46.0504 74.588L43.6505 76.0453L44.6816 74.2564C42.9802 73.6879 41.5108 72.6187 40.4841 71.2022L36.1862 73.8201L38.9009 69.1035C36.3869 66.2195 33.0016 64.4524 29.2785 64.4524C24.8118 64.4524 20.8333 66.9918 18.2646 70.9492C17.5038 72.1367 16.4274 73.11 15.1449 73.7699C13.8625 74.4299 12.4201 74.7528 10.9646 74.7058H10.7228C5.79071 74.7058 1.79395 80.0507 1.79395 86.6478C1.79395 93.2448 5.79071 98.5897 10.7228 98.5897C11.8078 98.5849 12.8754 98.3289 13.8344 97.8436C15.5125 97.0635 17.3479 96.6415 19.2134 96.6069C21.0789 96.5722 22.93 96.9257 24.6385 97.6429C26.0839 98.2612 27.6495 98.5809 29.2329 98.5809C30.8164 98.5809 32.382 98.2612 33.8274 97.6429C35.5236 96.9397 37.3582 96.5936 39.2066 96.6282C41.055 96.6629 42.874 97.0774 44.5402 97.8436C45.4893 98.3186 46.544 98.5685 47.6153 98.5723C52.5474 98.5723 56.5441 93.223 56.5441 86.6303C56.5834 84.0818 55.9494 81.5651 54.7009 79.3133Z" fill="#F2F2F2"/>
<path opacity="0.03" d="M41.3555 96.7877C38.7793 96.3186 36.1152 96.5951 33.7042 97.5818C32.2568 98.1954 30.6905 98.5105 29.1073 98.5068C27.5241 98.503 25.9595 98.1804 24.5153 97.56C22.8064 96.8435 20.9552 96.4907 19.0897 96.5261C17.2242 96.5615 15.389 96.9843 13.7113 97.765C12.7517 98.2485 11.6842 98.5029 10.5996 98.5068C6.2196 98.5068 2.57415 94.2876 1.81677 88.7202C2.69201 88.1104 3.43566 87.3444 4.00678 86.4645C6.57091 82.5071 10.554 79.9634 15.0207 79.9634C19.4874 79.9634 23.4157 82.4722 25.9707 86.3903C26.7388 87.576 27.8149 88.5512 29.0942 89.221C30.3735 89.8908 31.8124 90.2324 33.2708 90.2124H33.3848C36.866 90.2124 39.8864 92.8871 41.3555 96.7877Z" fill="black"/>
<path d="M181.069 104.572L177.538 106.696L179.682 102.97C179.075 102.506 178.324 102.249 177.547 102.242H177.51C177.266 102.244 177.022 102.227 176.78 102.189L175.58 102.914L176.096 102.041C175.247 101.758 174.514 101.225 174.002 100.518L171.857 101.827L173.226 99.4754C172.653 98.7655 171.92 98.1876 171.082 97.7844C170.245 97.3811 169.323 97.1628 168.385 97.1455C166.159 97.1455 164.174 98.4108 162.91 100.387C162.53 100.981 161.991 101.467 161.35 101.795C160.709 102.124 159.987 102.284 159.26 102.259H159.141C156.682 102.259 154.688 104.925 154.688 108.215C154.688 111.505 156.682 114.17 159.141 114.17C159.682 114.168 160.214 114.041 160.693 113.8C161.529 113.408 162.445 113.197 163.375 113.179C164.306 113.162 165.23 113.339 166.081 113.699C166.799 114.006 167.576 114.167 168.362 114.17C169.148 114.171 169.926 114.013 170.644 113.708C171.489 113.357 172.404 113.184 173.326 113.202C174.248 113.219 175.155 113.426 175.986 113.808C176.461 114.045 176.988 114.169 177.524 114.17C179.983 114.17 181.977 111.505 181.977 108.215C181.999 106.947 181.687 105.694 181.069 104.572Z" fill="#F2F2F2"/>
<path opacity="0.03" d="M174.412 113.289C173.128 113.056 171.8 113.194 170.598 113.686C169.879 113.989 169.102 114.146 168.317 114.149C167.522 114.149 166.737 113.989 166.013 113.677C165.16 113.321 164.237 113.145 163.306 113.163C162.376 113.181 161.461 113.393 160.624 113.782C160.146 114.024 159.614 114.151 159.073 114.153C156.888 114.153 155.072 112.046 154.693 109.271C155.129 108.966 155.499 108.584 155.783 108.145C157.066 106.168 159.05 104.903 161.258 104.903C163.467 104.903 165.447 106.155 166.734 108.106C167.118 108.698 167.656 109.186 168.295 109.521C168.935 109.856 169.654 110.027 170.384 110.017H170.438C172.172 110.008 173.682 111.343 174.412 113.289Z" fill="black"/>
<path d="M198.041 37.4707L203.713 40.9132L200.268 34.9226C201.244 34.1795 202.451 33.7681 203.699 33.7533H203.79C204.184 33.7568 204.578 33.729 204.967 33.6704L206.893 34.8354L206.053 33.3955C207.415 32.9416 208.592 32.088 209.416 30.9565L212.861 33.0421L210.684 29.2636C212.696 26.9512 215.411 25.5375 218.395 25.5375C221.976 25.5375 225.161 27.5707 227.219 30.7427C227.827 31.6919 228.688 32.4701 229.713 32.9981C230.738 33.5262 231.891 33.7852 233.054 33.7489H233.246C237.197 33.7489 240.4 38.0292 240.4 43.3173C240.4 48.6055 237.206 52.8814 233.246 52.8814C232.378 52.8786 231.523 52.675 230.755 52.288C229.409 51.6605 227.936 51.321 226.439 51.2931C224.942 51.2652 223.456 51.5496 222.086 52.1265C220.921 52.6226 219.661 52.8797 218.386 52.8814C217.128 52.8806 215.885 52.6279 214.736 52.1396C213.377 51.5769 211.907 51.3001 210.426 51.3279C208.946 51.3558 207.488 51.6876 206.154 52.3011C205.391 52.6793 204.545 52.8783 203.685 52.8814C199.734 52.8814 196.531 48.6011 196.531 43.3173C196.514 41.2782 197.034 39.2678 198.041 37.4707Z" fill="#F2F2F2"/>
<path opacity="0.03" d="M208.718 51.4721C210.783 51.0959 212.918 51.3177 214.85 52.1091C216.008 52.6038 217.261 52.8595 218.529 52.8595C219.798 52.8595 221.051 52.6038 222.209 52.1091C223.58 51.5345 225.065 51.2513 226.562 51.2792C228.059 51.3071 229.531 51.6453 230.878 52.2705C231.645 52.6608 232.5 52.866 233.369 52.8683C236.878 52.8683 239.798 49.4868 240.409 45.0146C239.706 44.5256 239.11 43.9107 238.652 43.2039C236.595 40.0362 233.406 37.9987 229.829 37.9987C226.252 37.9987 223.099 40.0101 221.041 43.1472C220.426 44.0931 219.566 44.8713 218.545 45.4064C217.523 45.9414 216.375 46.2153 215.21 46.2014H215.119C212.318 46.2057 209.904 48.348 208.718 51.4721Z" fill="black"/>
<path d="M103.935 135.236C103.698 134.891 102.534 135.236 101.339 135.982C101.129 136.117 100.928 136.257 100.746 136.396C99.9139 135.983 99.0169 135.703 98.0905 135.567L98.1407 135.532C99.3471 134.776 100.465 133.899 101.476 132.915H98.9072L102.635 131.545C103.091 130.851 103.237 130.271 102.986 129.908C102.311 128.94 99.0532 129.873 95.686 132.003C94.1688 132.928 92.8047 134.065 91.6391 135.375C88.9016 135.681 86.9807 136.449 86.9807 137.343C86.9807 137.963 87.8932 138.521 89.3761 138.91L89.2894 138.962C85.9405 141.087 83.7687 143.6 84.444 144.569C85.0371 145.441 87.6377 144.795 90.5486 143.177L88.6187 142.304L91.6619 142.505L91.7258 142.466C92.0497 142.26 92.3599 142.051 92.6611 141.842L90.3798 140.829L93.7241 141.047C94.3572 140.546 94.9491 139.999 95.4944 139.411C98.6106 139.254 101.047 138.539 101.471 137.614C101.73 137.501 101.983 137.376 102.229 137.238C102.658 136.972 103.055 136.662 103.415 136.313H102.502L103.83 135.825C103.976 135.572 104.026 135.367 103.935 135.236Z" fill="#F2F2F2"/>
<path d="M15.3036 267.771C15.3143 269.264 15.1614 270.754 14.8473 272.217C14.7835 272.492 14.7196 272.762 14.6557 273.024C12.9539 279.547 8.15413 284.32 2.42817 284.626C2.23655 284.626 2.04492 284.626 1.84417 284.626C-4.21029 284.626 -9.32943 279.63 -11.0221 272.749C-11.0677 272.566 -11.1088 272.383 -11.1544 272.199C-11.4761 270.737 -11.6367 269.247 -11.6335 267.753C-11.6335 258.434 -5.59729 250.881 1.84417 250.881C9.28563 250.881 15.3036 258.451 15.3036 267.771Z" fill="#3F3D56"/>
<path opacity="0.1" d="M15.3036 267.771C15.3143 269.264 15.1614 270.754 14.8473 272.217C14.7835 272.492 14.7196 272.762 14.6557 273.024C14.4504 273.024 14.2542 273.024 14.0489 273.002C12.5658 272.923 11.0918 272.729 9.64152 272.422C8.35514 272.806 7.04051 273.098 5.70862 273.295C4.6883 273.442 3.66009 273.533 2.62893 273.569C2.28217 273.569 1.93542 273.569 1.58867 273.569C0.354169 273.57 -0.878996 273.492 -2.1024 273.334C-4.07968 273.082 -6.02158 272.621 -7.89224 271.959C-8.91827 272.285 -9.96335 272.553 -11.0221 272.762C-11.0677 272.579 -11.1088 272.396 -11.1544 272.212C-11.4761 270.75 -11.6367 269.26 -11.6335 267.766C-11.6335 258.447 -5.59729 250.894 1.84417 250.894C9.28563 250.894 15.3036 258.451 15.3036 267.771Z" fill="black"/>
<path d="M44.0566 236.339C44.0585 232.246 43.0535 228.211 41.1229 224.558L25.2681 229.275L39.1838 221.447C36.8512 218.222 33.7906 215.539 30.2283 213.597C26.6659 211.654 22.6928 210.502 18.6023 210.225C17.949 209.268 17.2312 208.353 16.4534 207.485L-6.33184 214.261L12.3471 203.781C8.77769 201.159 4.58735 199.419 0.147072 198.715C-4.2932 198.012 -8.84641 198.366 -13.1094 199.747C-17.3724 201.127 -21.2137 203.492 -24.2931 206.631C-27.3726 209.77 -29.5951 213.586 -30.7641 217.743L-11.2594 239.21L-32.4386 224.584C-37.8184 228.21 -41.6534 233.567 -43.2423 239.675C-44.8312 245.783 -44.0677 252.234 -41.0915 257.848C-38.1154 263.462 -33.1254 267.864 -27.0342 270.248C-20.9431 272.633 -14.1579 272.84 -7.9196 270.834C-2.28395 272.808 3.87235 272.964 9.60958 271.279C13.6122 272.12 17.761 272.092 21.751 271.198C25.741 270.304 29.4707 268.566 32.6659 266.112C35.861 263.658 38.4404 260.55 40.2142 257.018C41.988 253.485 42.9112 249.617 42.9159 245.698C42.9159 245.113 42.8931 244.537 42.8521 243.952C43.6443 241.485 44.0502 238.919 44.0566 236.339Z" fill="#57B894"/>
<path opacity="0.1" d="M43.5821 241.199C35.2112 239.683 26.6276 239.578 18.219 240.889C8.70162 242.399 -1.02566 245.711 -10.3332 243.289C-15.8082 241.867 -20.5258 238.581 -25.8457 236.744C-30.9994 235.029 -36.5505 234.717 -41.8784 235.846C-43.9107 240.49 -44.5013 245.595 -43.5797 250.552C-42.6581 255.509 -40.2632 260.107 -36.6813 263.796C-33.0995 267.485 -28.4823 270.11 -23.3818 271.357C-18.2813 272.603 -12.9133 272.419 -7.91962 270.825C-2.28498 272.802 3.87134 272.961 9.60957 271.279C13.6121 272.12 17.761 272.092 21.751 271.198C25.741 270.304 29.4707 268.566 32.6659 266.112C35.861 263.658 38.4403 260.55 40.2142 257.018C41.988 253.485 42.9112 249.617 42.9159 245.698C42.9159 245.113 42.8931 244.537 42.8521 243.952C43.1497 243.049 43.3935 242.129 43.5821 241.199Z" fill="black"/>
<path d="M269.23 296.384C270.398 296.384 271.526 296.188 272.614 295.796C273.702 295.396 274.674 294.836 275.53 294.116C276.394 293.388 277.078 292.528 277.582 291.536C278.086 290.536 278.338 289.432 278.338 288.224V285.224H269.182V288.236H274.378V288.536C274.378 289.352 274.146 290.084 273.682 290.732C273.218 291.372 272.606 291.88 271.846 292.256C271.094 292.624 270.286 292.808 269.422 292.808C268.358 292.808 267.394 292.52 266.53 291.944C265.674 291.368 264.994 290.564 264.49 289.532C263.986 288.5 263.734 287.3 263.734 285.932C263.734 284.668 263.958 283.54 264.406 282.548C264.862 281.548 265.526 280.76 266.398 280.184C267.27 279.6 268.33 279.308 269.578 279.308C270.538 279.308 271.51 279.488 272.494 279.848C273.478 280.208 274.322 280.708 275.026 281.348L276.85 278.336C275.866 277.528 274.722 276.912 273.418 276.488C272.122 276.056 270.826 275.84 269.53 275.84C268.002 275.84 266.622 276.112 265.39 276.656C264.158 277.192 263.106 277.936 262.234 278.888C261.362 279.832 260.694 280.924 260.23 282.164C259.766 283.396 259.534 284.708 259.534 286.1C259.534 287.556 259.778 288.908 260.266 290.156C260.762 291.404 261.45 292.496 262.33 293.432C263.218 294.36 264.25 295.084 265.426 295.604C266.602 296.124 267.87 296.384 269.23 296.384ZM281.082 302.24H285.294L294.69 283.712H290.466L287.202 290.912L283.434 283.712H279.21L285.054 294.464L281.082 302.24ZM296.727 296H300.411V288.524C300.411 287.9 300.639 287.368 301.095 286.928C301.559 286.488 302.147 286.268 302.859 286.268C303.571 286.268 304.127 286.496 304.527 286.952C304.935 287.408 305.139 288.016 305.139 288.776V296H308.823V288.488C308.823 287.872 309.047 287.348 309.495 286.916C309.951 286.484 310.539 286.268 311.259 286.268C311.955 286.268 312.511 286.5 312.927 286.964C313.343 287.42 313.551 288.048 313.551 288.848V296H317.235V287.84C317.235 286.92 317.035 286.124 316.635 285.452C316.243 284.772 315.703 284.248 315.015 283.88C314.327 283.512 313.539 283.328 312.651 283.328C311.763 283.328 310.975 283.524 310.287 283.916C309.599 284.308 308.955 284.892 308.355 285.668C308.027 284.956 307.483 284.388 306.723 283.964C305.963 283.54 305.111 283.328 304.167 283.328C302.831 283.328 301.579 283.912 300.411 285.08V283.712H296.727V296ZM327.071 296.384C328.511 296.384 329.771 296.148 330.851 295.676C331.931 295.196 332.771 294.508 333.371 293.612C333.979 292.708 334.283 291.62 334.283 290.348C334.283 289.196 334.031 288.252 333.527 287.516C333.031 286.772 332.323 286.136 331.403 285.608C330.491 285.072 329.415 284.548 328.175 284.036C327.599 283.796 327.091 283.576 326.651 283.376C326.211 283.176 325.867 282.94 325.619 282.668C325.379 282.388 325.259 282.024 325.259 281.576C325.259 280.968 325.491 280.448 325.955 280.016C326.427 279.584 327.087 279.368 327.935 279.368C328.695 279.368 329.431 279.524 330.143 279.836C330.863 280.148 331.479 280.52 331.991 280.952L333.611 277.904C333.179 277.536 332.651 277.196 332.027 276.884C331.403 276.572 330.731 276.32 330.011 276.128C329.291 275.936 328.571 275.84 327.851 275.84C326.579 275.84 325.463 276.116 324.503 276.668C323.543 277.212 322.795 277.928 322.259 278.816C321.731 279.704 321.467 280.652 321.467 281.66C321.467 282.516 321.655 283.264 322.031 283.904C322.407 284.536 322.903 285.076 323.519 285.524C324.135 285.972 324.799 286.356 325.511 286.676C326.479 287.092 327.299 287.468 327.971 287.804C328.651 288.14 329.167 288.508 329.519 288.908C329.871 289.3 330.047 289.808 330.047 290.432C330.047 291.216 329.775 291.804 329.231 292.196C328.695 292.588 328.011 292.784 327.179 292.784C326.387 292.784 325.651 292.64 324.971 292.352C324.291 292.064 323.683 291.724 323.147 291.332C322.619 290.94 322.175 290.588 321.815 290.276L319.823 293.492C320.159 293.82 320.659 294.212 321.323 294.668C321.995 295.124 322.811 295.524 323.771 295.868C324.739 296.212 325.839 296.384 327.071 296.384ZM341.978 296.384C342.474 296.384 342.978 296.32 343.49 296.192C344.01 296.064 344.478 295.888 344.894 295.664L343.97 292.712C343.626 292.968 343.258 293.096 342.866 293.096C342.146 293.096 341.786 292.624 341.786 291.68V286.508H344.486V283.712H341.786V279.104H338.102V283.712H336.458V286.508H338.102V291.944C338.102 293.344 338.442 294.436 339.122 295.22C339.81 295.996 340.762 296.384 341.978 296.384ZM353.155 296.384C353.995 296.384 354.779 296.212 355.507 295.868C356.243 295.516 356.891 295.02 357.451 294.38V296H361.135V283.712H357.451V285.212C356.963 284.62 356.343 284.16 355.591 283.832C354.839 283.496 354.027 283.328 353.155 283.328C351.971 283.328 350.919 283.616 349.999 284.192C349.087 284.76 348.371 285.536 347.851 286.52C347.331 287.496 347.071 288.6 347.071 289.832C347.071 291.096 347.343 292.224 347.887 293.216C348.431 294.2 349.159 294.976 350.071 295.544C350.991 296.104 352.019 296.384 353.155 296.384ZM354.247 293.252C353.295 293.252 352.507 292.932 351.883 292.292C351.259 291.652 350.947 290.84 350.947 289.856C350.947 288.872 351.259 288.06 351.883 287.42C352.515 286.78 353.303 286.46 354.247 286.46C355.199 286.46 355.983 286.78 356.599 287.42C357.223 288.052 357.535 288.864 357.535 289.856C357.535 290.848 357.227 291.664 356.611 292.304C355.995 292.936 355.207 293.252 354.247 293.252ZM369.541 296.384C370.037 296.384 370.541 296.32 371.053 296.192C371.573 296.064 372.041 295.888 372.457 295.664L371.533 292.712C371.189 292.968 370.821 293.096 370.429 293.096C369.709 293.096 369.349 292.624 369.349 291.68V286.508H372.049V283.712H369.349V279.104H365.665V283.712H364.021V286.508H365.665V291.944C365.665 293.344 366.005 294.436 366.685 295.22C367.373 295.996 368.325 296.384 369.541 296.384ZM379.121 296.384C380.817 296.384 382.137 296.024 383.081 295.304C384.033 294.576 384.509 293.544 384.509 292.208C384.509 291.48 384.373 290.9 384.101 290.468C383.829 290.028 383.453 289.672 382.973 289.4C382.501 289.128 381.957 288.88 381.341 288.656C380.965 288.52 380.569 288.372 380.153 288.212C379.745 288.044 379.397 287.852 379.109 287.636C378.829 287.42 378.689 287.172 378.689 286.892C378.689 286.588 378.825 286.336 379.097 286.136C379.369 285.936 379.733 285.836 380.189 285.836C380.997 285.836 381.921 286.168 382.961 286.832L384.221 284.468C382.701 283.724 381.349 283.352 380.165 283.352C379.189 283.352 378.325 283.516 377.573 283.844C376.829 284.172 376.245 284.628 375.821 285.212C375.397 285.788 375.185 286.456 375.185 287.216C375.185 287.848 375.325 288.368 375.605 288.776C375.893 289.176 376.265 289.508 376.721 289.772C377.177 290.036 377.653 290.272 378.149 290.48C379.013 290.84 379.649 291.124 380.057 291.332C380.465 291.532 380.669 291.868 380.669 292.34C380.669 292.764 380.525 293.092 380.237 293.324C379.957 293.548 379.585 293.66 379.121 293.66C377.985 293.66 376.889 293.1 375.833 291.98L374.285 294.452C375.389 295.74 377.001 296.384 379.121 296.384Z" fill="black"/>
</g>
<defs>
<clipPath id="clip0_2_365">
<rect width="485" height="312" fill="white" transform="translate(-44)"/>
</clipPath>
</defs>
</svg>
